<?xml version="1.0" encoding="UTF-8"?>
<!DOCTYPE svg PUBLIC "-//W3C//DTD SVG 1.1//EN" "http://www.w3.org/Graphics/SVG/1.1/DTD/svg11.dtd">
<svg xmlns="http://www.w3.org/2000/svg" version="1.1" width="900px" height="365px" style="shape-rendering:geometricPrecision; text-rendering:geometricPrecision; image-rendering:optimizeQuality; fill-rule:evenodd; clip-rule:evenodd" xmlns:xlink="http://www.w3.org/1999/xlink">
<g><path style="opacity:0.846" fill="#090909" d="M 433.5,-0.5 C 437.167,-0.5 440.833,-0.5 444.5,-0.5C 451.144,3.95551 455.144,10.1222 456.5,18C 456.42,19.8937 456.087,21.7271 455.5,23.5C 450.379,27.8216 445.545,32.4882 441,37.5C 440.333,50.1667 440.333,62.8333 441,75.5C 446.745,69.2639 452.245,62.9305 457.5,56.5C 464.015,61.2591 470.348,66.2591 476.5,71.5C 481.611,65.6007 486.944,59.934 492.5,54.5C 496.49,58.6593 500.324,62.9926 504,67.5C 506.799,65.3767 508.799,62.7101 510,59.5C 510.333,48.1667 510.667,36.8333 511,25.5C 519.301,23.9482 527.634,22.6148 536,21.5C 550.476,37.5777 565.31,53.4111 580.5,69C 581.167,69.6667 581.833,69.6667 582.5,69C 585.378,66.2913 588.044,63.458 590.5,60.5C 596.609,67.7301 602.942,74.7301 609.5,81.5C 612.122,78.5077 614.789,75.5077 617.5,72.5C 624.138,76.8124 630.472,81.4791 636.5,86.5C 641.087,80.7365 645.921,75.0698 651,69.5C 651.837,67.9926 653.004,67.4926 654.5,68C 662,80.1667 669.5,92.3333 677,104.5C 687.021,94.395 697.021,84.395 707,74.5C 715.669,86.8568 724.002,99.5235 732,112.5C 733.709,109.582 735.542,106.748 737.5,104C 742.144,104.291 746.811,104.291 751.5,104C 753.842,98.9029 757.009,94.4029 761,90.5C 768.49,95.3179 775.99,100.151 783.5,105C 784.126,105.75 784.626,106.584 785,107.5C 786.484,103.983 788.984,102.149 792.5,102C 801.003,107.753 809.336,113.753 817.5,120C 814.705,127.085 811.539,133.918 808,140.5C 807.086,143.545 806.419,146.545 806,149.5C 809.028,148.383 811.695,146.716 814,144.5C 819.257,136.988 824.757,129.654 830.5,122.5C 835.5,127.167 840.5,131.833 845.5,136.5C 848.535,121.655 857.535,115.155 872.5,117C 881.973,119.14 887.807,124.973 890,134.5C 892.359,148.056 890.025,160.723 883,172.5C 878.293,179.707 873.793,187.04 869.5,194.5C 873.5,198.167 877.5,201.833 881.5,205.5C 881.833,209.333 882.167,213.167 882.5,217C 880.871,234.674 880.038,252.507 880,270.5C 874.513,274.225 868.68,277.392 862.5,280C 855.06,287.696 847.727,295.53 840.5,303.5C 835.011,297.842 829.677,292.009 824.5,286C 820.224,283.983 816.224,284.317 812.5,287C 809.167,291.667 805.167,295.667 800.5,299C 799.5,299.667 798.5,299.667 797.5,299C 792.975,293.13 788.808,286.963 785,280.5C 785.472,287.565 783.972,294.065 780.5,300C 788.637,311.812 796.804,323.646 805,335.5C 806.009,337.025 806.509,338.692 806.5,340.5C 789.022,341.496 771.855,343.829 755,347.5C 754.06,344.558 752.06,343.225 749,343.5C 738.344,344.099 727.844,345.432 717.5,347.5C 716.571,346.311 716.238,344.978 716.5,343.5C 698.167,343.5 679.833,343.5 661.5,343.5C 660.419,333.434 658.919,323.434 657,313.5C 654.565,324.734 652.065,335.567 649.5,346C 638.436,344.677 627.269,343.51 616,342.5C 601.418,343.576 586.918,344.909 572.5,346.5C 571.553,341.947 570.053,337.613 568,333.5C 567.1,337.834 566.266,342.168 565.5,346.5C 556.651,345.294 547.651,344.461 538.5,344C 514.502,343.5 490.502,343.333 466.5,343.5C 466.731,334.098 466.065,324.765 464.5,315.5C 460.315,317.78 455.981,319.447 451.5,320.5C 451.5,327.5 451.5,334.5 451.5,341.5C 435.006,342.635 418.672,344.301 402.5,346.5C 402.5,345.5 402.5,344.5 402.5,343.5C 390.261,343.739 378.261,345.072 366.5,347.5C 365.548,345.955 365.215,344.288 365.5,342.5C 350.431,343.004 335.598,344.671 321,347.5C 318.659,346.993 318.159,345.826 319.5,344C 299.503,343.5 279.503,343.333 259.5,343.5C 259.66,341.801 259.494,340.134 259,338.5C 242.152,348.67 225.152,349.003 208,339.5C 207.517,340.448 207.351,341.448 207.5,342.5C 194.509,343.374 181.509,344.208 168.5,345C 166.341,345.912 164.175,346.745 162,347.5C 158.981,352.222 156.148,357.055 153.5,362C 150.518,362.498 147.518,362.665 144.5,362.5C 144.165,357.823 143.665,353.156 143,348.5C 142.5,346.667 141.333,345.5 139.5,345C 125.127,344.253 110.794,343.086 96.5,341.5C 100.431,332.207 104.264,322.874 108,313.5C 109.772,308.863 111.106,304.196 112,299.5C 110.951,300.517 109.784,300.684 108.5,300C 103.833,297.667 99.1667,295.333 94.5,293C 90.9165,289.584 86.9165,286.751 82.5,284.5C 78.5181,287.152 74.8514,290.152 71.5,293.5C 66.2584,296.371 61.0917,299.371 56,302.5C 41.1943,307.837 27.6943,305.671 15.5,296C 7.2735,288.454 1.94017,279.287 -0.5,268.5C -0.5,260.5 -0.5,252.5 -0.5,244.5C 2.17758,230.981 8.84425,219.814 19.5,211C 12.005,204.525 7.17165,196.358 5,186.5C 0.599082,165.913 3.59908,146.58 14,128.5C 16.4969,127.112 17.3302,125.279 16.5,123C 18.6495,112.945 21.3162,102.945 24.5,93C 27.8882,87.1536 30.8882,80.6536 33.5,73.5C 34.0253,72.8076 34.6919,72.3076 35.5,72C 35.1667,71.6667 34.8333,71.3333 34.5,71C 41.6351,58.9144 49.1351,47.081 57,35.5C 57.4828,34.552 57.6495,33.552 57.5,32.5C 69.0319,37.5993 80.3652,43.2659 91.5,49.5C 92.086,49.2907 92.586,48.9574 93,48.5C 94.4892,43.5435 95.8225,38.5435 97,33.5C 97.8333,32.5 98.6667,31.5 99.5,30.5C 111.084,38.4546 122.084,47.1213 132.5,56.5C 127.982,73.5766 123.315,90.5766 118.5,107.5C 130.47,108.902 140.637,113.902 149,122.5C 151.638,125.474 154.305,128.474 157,131.5C 157.333,132.5 157.667,133.5 158,134.5C 156.014,124.555 154.347,114.555 153,104.5C 155.161,99.5076 157.828,94.8409 161,90.5C 165.414,89.6971 169.914,89.1971 174.5,89C 177.553,83.7209 180.719,78.5542 184,73.5C 192.282,77.6152 200.449,81.9485 208.5,86.5C 210.535,84.6278 212.702,82.9611 215,81.5C 219.551,83.7754 224.217,85.7754 229,87.5C 230.605,86.8993 231.938,85.8993 233,84.5C 237.943,78.1274 242.777,71.6274 247.5,65C 249.788,64.5825 251.788,65.2491 253.5,67C 257.943,71.0618 262.61,74.8951 267.5,78.5C 272.813,72.0189 278.313,65.6856 284,59.5C 287.696,64.5215 291.362,69.5215 295,74.5C 297.186,70.8017 299.853,67.4683 303,64.5C 303.667,65.1667 304.333,65.8333 305,66.5C 306.485,61.5596 307.819,56.5596 309,51.5C 312.11,46.0263 315.11,40.0263 318,33.5C 322.787,26.7124 328.287,20.5457 334.5,15C 356.62,-1.03739 380.287,-3.53739 405.5,7.5C 406.906,8.95074 408.406,10.2841 410,11.5C 411.972,10.6948 413.472,9.36146 414.5,7.5C 420.818,4.49953 427.151,1.83286 433.5,-0.5 Z M 65.5,103.5 C 70.2408,104.907 73.2408,107.907 74.5,112.5C 71.5,112.5 68.5,112.5 65.5,112.5C 65.5,109.5 65.5,106.5 65.5,103.5 Z M 313.5,163.5 C 313.333,147.83 313.5,132.163 314,116.5C 316.944,124.104 321.111,130.937 326.5,137C 321.715,145.735 317.381,154.569 313.5,163.5 Z M 230.5,160.5 C 229.341,149.007 229.174,137.341 230,125.5C 230.5,126 231,126.5 231.5,127C 230.513,138.085 230.179,149.252 230.5,160.5 Z M 660.5,149.5 C 661.827,153.783 662.493,158.449 662.5,163.5C 662.905,171.512 663.072,179.512 663,187.5C 659.681,183.674 656.515,179.674 653.5,175.5C 652.02,174.887 650.687,174.554 649.5,174.5C 650.833,168.5 650.833,162.5 649.5,156.5C 653.434,154.379 657.1,152.046 660.5,149.5 Z M 369.5,154.5 C 375.013,153.184 380.68,153.184 386.5,154.5C 385.185,156.316 383.685,157.983 382,159.5C 378.093,157.143 373.927,155.476 369.5,154.5 Z M 734.5,155.5 C 735.478,155.811 736.145,156.478 736.5,157.5C 733.996,163.165 730.496,168.165 726,172.5C 724.63,176.133 722.796,179.467 720.5,182.5C 720.709,183.086 721.043,183.586 721.5,184C 719.006,185.491 716.506,186.991 714,188.5C 712.996,183.853 713.662,179.519 716,175.5C 718.062,173.099 719.729,170.433 721,167.5C 725.694,163.635 730.194,159.635 734.5,155.5 Z M 230.5,160.5 C 231.262,166.843 231.929,173.343 232.5,180C 232.167,180.833 231.833,181.667 231.5,182.5C 230.503,175.197 230.169,167.863 230.5,160.5 Z M 439.5,197.5 C 446.925,206.248 453.925,215.248 460.5,224.5C 467.536,217.466 474.203,210.133 480.5,202.5C 481.93,205.433 483.93,207.933 486.5,210C 491.568,214.285 496.734,218.451 502,222.5C 508.392,216.057 514.558,209.39 520.5,202.5C 525.746,205.087 531.079,207.587 536.5,210C 545.346,218.846 554.179,227.679 563,236.5C 564.261,236.241 565.261,235.574 566,234.5C 571.899,223.766 580.065,215.099 590.5,208.5C 596.228,212.121 601.728,216.121 607,220.5C 613.548,228.046 619.715,235.879 625.5,244C 611.999,245.38 598.666,247.213 585.5,249.5C 585.5,248.5 585.5,247.5 585.5,246.5C 570.167,246.5 554.833,246.5 539.5,246.5C 535.676,262.504 531.51,278.837 527,295.5C 522.599,296.467 518.099,296.8 513.5,296.5C 513.216,279.165 512.883,261.832 512.5,244.5C 497.19,245.749 481.857,246.915 466.5,248C 465.773,249.399 465.273,250.899 465,252.5C 460.552,250.464 456.052,248.63 451.5,247C 437.659,246.686 423.826,246.186 410,245.5C 379.936,246.11 349.936,246.777 320,247.5C 319.517,246.552 319.351,245.552 319.5,244.5C 310.515,245.255 301.515,245.921 292.5,246.5C 289.234,246.248 286.067,245.582 283,244.5C 275.35,245.299 267.684,245.966 260,246.5C 257.379,246.237 254.879,245.57 252.5,244.5C 241.142,245.418 229.809,246.418 218.5,247.5C 217.592,246.21 217.759,244.877 219,243.5C 224.768,234.282 230.768,225.282 237,216.5C 241.917,224.67 247.084,232.67 252.5,240.5C 258.762,231.402 265.595,222.736 273,214.5C 275.843,217.011 278.343,219.844 280.5,223C 285.554,225.389 290.054,228.555 294,232.5C 299.347,226.817 304.347,220.817 309,214.5C 320.266,222.729 331.266,222.396 342,213.5C 344.194,210.446 345.861,207.112 347,203.5C 355.861,210.688 365.361,217.022 375.5,222.5C 381.814,215.018 388.314,207.685 395,200.5C 398.504,207.667 403.671,213.167 410.5,217C 416.343,218.324 421.676,217.324 426.5,214C 431.663,209.184 435.997,203.684 439.5,197.5 Z M 655.5,217.5 C 656.726,220.672 658.393,223.672 660.5,226.5C 673.076,229.454 683.409,235.954 691.5,246C 671.813,246.792 652.146,246.459 632.5,245C 641.19,236.495 648.857,227.328 655.5,217.5 Z M 159.5,233.5 C 162.19,236.039 164.357,239.039 166,242.5C 167.117,244.124 168.617,245.124 170.5,245.5C 176.519,244.816 182.519,243.983 188.5,243C 190.257,239.409 192.591,236.243 195.5,233.5C 200.379,238.209 205.713,242.375 211.5,246C 192.167,246.667 172.833,246.667 153.5,246C 156.362,242.248 158.362,238.082 159.5,233.5 Z M 719.5,233.5 C 722.288,237.312 724.621,241.479 726.5,246C 720.5,246.667 714.5,246.667 708.5,246C 712.747,242.258 716.414,238.092 719.5,233.5 Z M 314.5,293.5 C 317.5,293.5 320.5,293.5 323.5,293.5C 323.5,294.5 323.5,295.5 323.5,296.5C 320.15,296.665 316.817,296.498 313.5,296C 314.252,295.329 314.586,294.496 314.5,293.5 Z"/></g>
<g><path style="opacity:1" fill="#f3f3f3" d="M 433.5,35.5 C 432.172,55.3373 432.172,75.3373 433.5,95.5C 434.107,95.3764 434.44,95.0431 434.5,94.5C 441.705,85.2725 449.038,76.1058 456.5,67C 457.5,66.3333 458.5,66.3333 459.5,67C 465.958,71.1235 471.458,76.2902 476,82.5C 480.635,76.0325 485.802,70.0325 491.5,64.5C 495.845,68.847 499.845,73.5137 503.5,78.5C 506.167,75.5 508.833,72.5 511.5,69.5C 515.178,75.5222 519.345,81.1889 524,86.5C 526.105,89.0106 525.938,91.3439 523.5,93.5C 527.47,93.1317 531.47,91.965 535.5,90C 529.667,83.5 523.833,77 518,70.5C 517.5,57.5043 517.333,44.5043 517.5,31.5C 523.161,31.0932 528.828,30.7599 534.5,30.5C 550.145,47.1463 565.812,63.813 581.5,80.5C 584.238,76.5656 587.571,73.7323 591.5,72C 595.667,76.8333 599.833,81.6667 604,86.5C 604.048,89.4128 603.215,92.0794 601.5,94.5C 599.727,96.6002 599.394,98.9335 600.5,101.5C 601.107,101.376 601.44,101.043 601.5,100.5C 606.774,93.8886 612.44,87.5553 618.5,81.5C 625.434,85.5992 631.267,90.9325 636,97.5C 641.341,91.4671 646.674,85.4671 652,79.5C 653.261,79.7591 654.261,80.4258 655,81.5C 660,90.1667 665,98.8333 670,107.5C 671.51,109.208 673.01,110.874 674.5,112.5C 678.044,111.211 681.377,109.544 684.5,107.5C 690.798,99.5344 697.798,92.2011 705.5,85.5C 715.897,99.2782 725.563,113.612 734.5,128.5C 733.36,123.067 734.86,118.4 739,114.5C 739.483,113.552 739.649,112.552 739.5,111.5C 744.511,111.666 749.511,111.499 754.5,111C 757.407,107.44 760.241,103.94 763,100.5C 770.429,104.927 777.596,109.76 784.5,115C 787.284,115.417 789.284,114.25 790.5,111.5C 791.365,110.417 792.365,110.251 793.5,111C 798.666,114.673 803.666,118.506 808.5,122.5C 802.861,131.768 799.528,141.768 798.5,152.5C 796.946,156.567 796.28,160.9 796.5,165.5C 796.5,167.167 796.5,168.833 796.5,170.5C 795.487,177.989 794.82,185.656 794.5,193.5C 793.447,201.463 792.947,209.463 793,217.5C 797.016,221.348 800.849,225.348 804.5,229.5C 797.463,240.938 789.963,251.938 782,262.5C 773.481,256.486 766.981,248.819 762.5,239.5C 760.525,242.609 758.192,245.443 755.5,248C 748.808,248.453 742.141,248.119 735.5,247C 729.849,238.221 725.849,228.721 723.5,218.5C 715.317,225.849 707.65,233.683 700.5,242C 699.833,242.667 699.167,242.667 698.5,242C 689.698,230.858 678.532,223.358 665,219.5C 663.959,216.044 663.125,212.544 662.5,209C 664.355,205.291 666.022,201.458 667.5,197.5C 668.828,175.33 668.828,152.996 667.5,130.5C 666.893,130.624 666.56,130.957 666.5,131.5C 661.203,137.298 655.703,142.965 650,148.5C 647.636,145.31 645.136,142.31 642.5,139.5C 641.817,146.089 641.484,153.422 641.5,161.5C 641.833,169.167 642.167,176.833 642.5,184.5C 643.107,184.376 643.44,184.043 643.5,183.5C 645.481,181.856 647.481,180.19 649.5,178.5C 654.741,184.652 659.741,190.985 664.5,197.5C 651.736,209.925 639.736,222.925 628.5,236.5C 619.079,220.578 606.246,208.245 590,199.5C 578.484,205.515 568.984,213.848 561.5,224.5C 553.598,215.097 544.598,206.93 534.5,200C 529.44,197.979 524.273,196.146 519,194.5C 518.167,194.667 517.333,194.833 516.5,195C 510.958,200.375 505.624,205.875 500.5,211.5C 492.431,205.932 485.931,198.932 481,190.5C 474.333,197.833 467.667,205.167 461,212.5C 454.308,203.975 447.808,195.308 441.5,186.5C 440.672,185.585 439.672,184.919 438.5,184.5C 435.081,189.668 431.915,195.002 429,200.5C 421.859,208.4 413.692,209.566 404.5,204C 400.546,198.919 397.546,193.419 395.5,187.5C 388.535,195.8 381.202,203.8 373.5,211.5C 361.646,204.81 350.48,197.143 340,188.5C 341.872,196.885 339.705,204.052 333.5,210C 323.179,214.837 315.179,212.337 309.5,202.5C 303.538,208.419 298.038,214.752 293,221.5C 284.333,216.833 277.667,210.167 273,201.5C 265.948,209.713 259.114,218.046 252.5,226.5C 246.802,219.143 241.136,211.809 235.5,204.5C 228.013,215.463 220.513,226.463 213,237.5C 206.041,232.875 200.041,227.208 195,220.5C 191.833,225 188.667,229.5 185.5,234C 181.167,234.667 176.833,234.667 172.5,234C 170.376,232.878 168.543,231.378 167,229.5C 163.829,224.49 161.329,219.157 159.5,213.5C 155.436,224.964 150.27,235.964 144,246.5C 140.606,247.456 137.106,247.789 133.5,247.5C 129.698,257.115 125.865,266.782 122,276.5C 117.312,281.188 112.645,285.855 108,290.5C 98.7589,285.463 89.9256,279.796 81.5,273.5C 74.3456,279.243 67.0122,284.743 59.5,290C 32.0339,301.851 14.2006,293.351 6,264.5C 2.62218,244.692 8.45552,228.192 23.5,215C 26.1667,213.667 28.8333,212.333 31.5,211C 15.125,200.581 7.79166,185.581 9.5,166C 9.28142,160.568 9.94809,155.401 11.5,150.5C 12.9238,148.485 13.5905,146.152 13.5,143.5C 15.6437,137.886 18.8103,132.886 23,128.5C 23.6189,116.358 26.2855,104.692 31,93.5C 39.2212,76.052 48.7212,59.3853 59.5,43.5C 60.365,42.4173 61.365,42.2506 62.5,43C 73.5,48.8333 84.5,54.6667 95.5,60.5C 97.9779,54.732 99.6446,48.732 100.5,42.5C 102.783,42.6079 104.783,43.4412 106.5,45C 110.88,49.048 115.546,52.7147 120.5,56C 122.357,57.1824 123.357,58.849 123.5,61C 118.958,74.3337 114.958,87.8337 111.5,101.5C 110.076,103.515 109.41,105.848 109.5,108.5C 108.549,109.919 108.216,111.585 108.5,113.5C 109.833,113.5 111.167,113.5 112.5,113.5C 137.547,117.614 153.381,131.947 160,156.5C 161.81,152.743 163.81,149.076 166,145.5C 166.815,140.648 166.648,135.981 165.5,131.5C 165.59,128.848 164.924,126.515 163.5,124.5C 162.014,118.887 160.68,113.22 159.5,107.5C 160.225,103.55 161.892,100.05 164.5,97C 168.795,96.0881 173.128,95.4215 177.5,95C 180.868,91.0982 183.868,86.9315 186.5,82.5C 194.004,87.0865 201.671,91.4199 209.5,95.5C 211.5,93.5 213.5,91.5 215.5,89.5C 219.997,92.4984 224.831,94.8317 230,96.5C 231.605,95.8993 232.938,94.8993 234,93.5C 238.286,86.5898 243.286,80.2565 249,74.5C 256.462,78.2243 262.462,83.5576 267,90.5C 272.333,83.8333 277.667,77.1667 283,70.5C 286.833,75.5 290.667,80.5 294.5,85.5C 296.932,82.3119 299.599,79.3119 302.5,76.5C 305.806,79.7667 308.639,83.4333 311,87.5C 309.103,60.1331 318.603,37.6331 339.5,20C 362.937,3.78202 386.604,3.61536 410.5,19.5C 417.269,13.1996 425.103,8.86626 434,6.5C 445.839,8.84413 449.172,15.5108 444,26.5C 441.436,28.7272 438.603,30.5606 435.5,32C 434.695,33.1127 434.028,34.2794 433.5,35.5 Z M 65.5,103.5 C 65.5,106.5 65.5,109.5 65.5,112.5C 68.5,112.5 71.5,112.5 74.5,112.5C 73.2408,107.907 70.2408,104.907 65.5,103.5 Z M 313.5,163.5 C 317.381,154.569 321.715,145.735 326.5,137C 321.111,130.937 316.944,124.104 314,116.5C 313.5,132.163 313.333,147.83 313.5,163.5 Z M 230.5,160.5 C 230.179,149.252 230.513,138.085 231.5,127C 231,126.5 230.5,126 230,125.5C 229.174,137.341 229.341,149.007 230.5,160.5 Z M 660.5,149.5 C 657.1,152.046 653.434,154.379 649.5,156.5C 650.833,162.5 650.833,168.5 649.5,174.5C 650.687,174.554 652.02,174.887 653.5,175.5C 656.515,179.674 659.681,183.674 663,187.5C 663.072,179.512 662.905,171.512 662.5,163.5C 662.493,158.449 661.827,153.783 660.5,149.5 Z M 369.5,154.5 C 373.927,155.476 378.093,157.143 382,159.5C 383.685,157.983 385.185,156.316 386.5,154.5C 380.68,153.184 375.013,153.184 369.5,154.5 Z M 734.5,155.5 C 730.194,159.635 725.694,163.635 721,167.5C 719.729,170.433 718.062,173.099 716,175.5C 713.662,179.519 712.996,183.853 714,188.5C 716.506,186.991 719.006,185.491 721.5,184C 721.043,183.586 720.709,183.086 720.5,182.5C 722.796,179.467 724.63,176.133 726,172.5C 730.496,168.165 733.996,163.165 736.5,157.5C 736.145,156.478 735.478,155.811 734.5,155.5 Z M 230.5,160.5 C 230.169,167.863 230.503,175.197 231.5,182.5C 231.833,181.667 232.167,180.833 232.5,180C 231.929,173.343 231.262,166.843 230.5,160.5 Z M 655.5,217.5 C 648.857,227.328 641.19,236.495 632.5,245C 652.146,246.459 671.813,246.792 691.5,246C 683.409,235.954 673.076,229.454 660.5,226.5C 658.393,223.672 656.726,220.672 655.5,217.5 Z M 159.5,233.5 C 158.362,238.082 156.362,242.248 153.5,246C 172.833,246.667 192.167,246.667 211.5,246C 205.713,242.375 200.379,238.209 195.5,233.5C 192.591,236.243 190.257,239.409 188.5,243C 182.519,243.983 176.519,244.816 170.5,245.5C 168.617,245.124 167.117,244.124 166,242.5C 164.357,239.039 162.19,236.039 159.5,233.5 Z M 719.5,233.5 C 716.414,238.092 712.747,242.258 708.5,246C 714.5,246.667 720.5,246.667 726.5,246C 724.621,241.479 722.288,237.312 719.5,233.5 Z"/></g>
<g><path style="opacity:1" fill="#060606" d="M 370.5,14.5 C 378.392,14.1783 386.058,15.3449 393.5,18C 399.942,21.453 406.109,25.2863 412,29.5C 415.1,26.3997 418.267,23.2331 421.5,20C 426.362,16.7328 431.695,14.8995 437.5,14.5C 437.657,15.8734 437.49,17.2068 437,18.5C 431.432,22.7244 427.432,28.0577 425,34.5C 424.073,75.1855 424.406,115.852 426,156.5C 426.187,160.229 427.853,162.896 431,164.5C 433.837,163.083 436.504,161.416 439,159.5C 440.767,160.34 442.101,161.673 443,163.5C 442.735,166.82 441.069,169.487 438,171.5C 431.886,180.614 425.386,189.448 418.5,198C 415.331,198.978 412.497,198.478 410,196.5C 406.212,187.928 402.712,179.261 399.5,170.5C 391.473,178.36 383.973,186.693 377,195.5C 375.561,197.448 373.728,198.781 371.5,199.5C 362.858,193.2 354.192,186.867 345.5,180.5C 341.15,177.81 336.483,176.644 331.5,177C 329.955,178.822 329.288,180.989 329.5,183.5C 330.823,189.113 331.323,194.779 331,200.5C 329.537,202.885 327.371,203.885 324.5,203.5C 321.675,203.881 319.509,202.881 318,200.5C 316.628,190.32 318.294,180.653 323,171.5C 328.759,158.815 334.926,146.315 341.5,134C 334.131,124.955 327.964,115.122 323,104.5C 313.234,69.4509 323.067,41.6175 352.5,21C 358.299,17.9183 364.299,15.7516 370.5,14.5 Z M 369.5,154.5 C 373.927,155.476 378.093,157.143 382,159.5C 383.685,157.983 385.185,156.316 386.5,154.5C 380.68,153.184 375.013,153.184 369.5,154.5 Z"/></g>
<g><path style="opacity:1" fill="#959595" d="M 534.5,30.5 C 528.828,30.7599 523.161,31.0932 517.5,31.5C 523.09,29.4503 528.756,29.117 534.5,30.5 Z"/></g>
<g><path style="opacity:1" fill="#060606" d="M 592.5,96.5 C 591.111,101.269 590.444,106.269 590.5,111.5C 590.492,137.512 590.659,163.512 591,189.5C 579.305,194.365 569.472,201.698 561.5,211.5C 556.368,206.539 551.034,201.705 545.5,197C 539.224,193.946 533.057,190.779 527,187.5C 529.731,177.783 531.397,167.783 532,157.5C 532.412,138.158 532.412,118.824 532,99.5C 536.563,97.8666 541.063,96.0333 545.5,94C 546.574,93.2613 547.241,92.2613 547.5,91C 542.698,84.1984 537.198,78.0317 531,72.5C 529.92,70.0038 528.586,67.6705 527,65.5C 526.333,56.1667 526.333,46.8333 527,37.5C 528.388,36.4464 529.888,36.2797 531.5,37C 548.536,55.0341 565.203,73.3675 581.5,92C 582.167,92.6667 582.833,92.6667 583.5,92C 585.167,89.6667 586.833,87.3333 588.5,85C 591.792,84.1042 594.125,85.2709 595.5,88.5C 593.506,90.8157 592.506,93.4824 592.5,96.5 Z"/></g>
<g><path style="opacity:1" fill="#f6f6f6" d="M 362.5,38.5 C 368.593,38.1392 374.593,38.6392 380.5,40C 383.513,41.6792 385.846,44.0125 387.5,47C 386.365,49.4412 384.865,51.6079 383,53.5C 370.338,49.8365 359.671,52.8365 351,62.5C 346.935,69.5248 346.602,76.5248 350,83.5C 352.458,81.2859 354.458,78.6192 356,75.5C 361.547,69.2523 367.38,68.919 373.5,74.5C 364.427,90.9768 355.593,107.643 347,124.5C 331.722,108.128 327.389,89.1277 334,67.5C 339.747,53.9214 349.247,44.2547 362.5,38.5 Z"/></g>
<g><path style="opacity:1" fill="#8e8e8e" d="M 433.5,35.5 C 433.17,55.3404 433.503,75.0071 434.5,94.5C 434.44,95.0431 434.107,95.3764 433.5,95.5C 432.172,75.3373 432.172,55.3373 433.5,35.5 Z"/></g>
<g><path style="opacity:1" fill="#040404" d="M 111.5,70.5 C 110.076,72.5145 109.41,74.8478 109.5,77.5C 105.126,90.965 101.126,104.632 97.5,118.5C 96.9569,118.56 96.6236,118.893 96.5,119.5C 102.463,120.496 108.463,120.829 114.5,120.5C 129.942,124.101 141.109,133.101 148,147.5C 158.055,176.686 156.055,205.02 142,232.5C 138.636,237.23 135.803,242.23 133.5,247.5C 126.927,256.279 120.094,264.946 113,273.5C 110.95,275.888 108.616,277.888 106,279.5C 97.3333,274.167 88.6667,268.833 80,263.5C 71.4653,270.854 62.2986,277.354 52.5,283C 34.3489,290.911 22.0156,285.744 15.5,267.5C 14.669,260.869 14.3357,254.202 14.5,247.5C 18.3332,221.748 32.9999,211.581 58.5,217C 59.812,213.949 60.812,210.783 61.5,207.5C 26.3023,205.716 12.3023,187.716 19.5,153.5C 20.9238,151.485 21.5905,149.152 21.5,146.5C 23.7631,140.294 27.2631,134.961 32,130.5C 32.3311,116.504 35.3311,103.17 41,90.5C 47.3347,77.5046 54.5013,65.0046 62.5,53C 63.5,52.3333 64.5,52.3333 65.5,53C 77.6498,59.7416 89.9831,65.9082 102.5,71.5C 103.039,66.6786 104.205,62.0119 106,57.5C 108.781,56.8406 111.114,57.8406 113,60.5C 113.691,64.0213 113.191,67.3546 111.5,70.5 Z M 65.5,103.5 C 65.5,106.5 65.5,109.5 65.5,112.5C 68.5,112.5 71.5,112.5 74.5,112.5C 73.2408,107.907 70.2408,104.907 65.5,103.5 Z"/></g>
<g><path style="opacity:1" fill="#f7f7f7" d="M 397.5,58.5 C 397.5,77.5 397.5,96.5 397.5,115.5C 394.615,115.194 391.948,115.527 389.5,116.5C 380.827,116.666 372.16,116.5 363.5,116C 373.436,95.962 383.769,76.1287 394.5,56.5C 396.396,55.3606 397.396,56.0272 397.5,58.5 Z"/></g>
<g><path style="opacity:1" fill="#cacaca" d="M 397.5,58.5 C 398.497,77.6595 398.83,96.9928 398.5,116.5C 395.5,116.5 392.5,116.5 389.5,116.5C 391.948,115.527 394.615,115.194 397.5,115.5C 397.5,96.5 397.5,77.5 397.5,58.5 Z"/></g>
<g><path style="opacity:1" fill="#909090" d="M 111.5,70.5 C 111.59,73.1522 110.924,75.4855 109.5,77.5C 109.41,74.8478 110.076,72.5145 111.5,70.5 Z"/></g>
<g><path style="opacity:1" fill="#050505" d="M 458.5,76.5 C 459.552,76.3505 460.552,76.5172 461.5,77C 468.118,83 471.784,90.5 472.5,99.5C 478.144,91.526 484.478,84.1926 491.5,77.5C 495.824,82.1251 500.157,86.7918 504.5,91.5C 506.358,89.4759 508.025,87.3092 509.5,85C 513.812,84.9829 515.645,87.1496 515,91.5C 512.277,94.5568 509.944,97.8901 508,101.5C 507.333,125.167 507.333,148.833 508,172.5C 508.219,173.938 508.719,175.271 509.5,176.5C 513.532,173.425 516.532,174.259 518.5,179C 517.683,180.49 516.85,181.99 516,183.5C 510.6,188.9 505.267,194.233 500,199.5C 492.859,193.219 488.859,185.219 488,175.5C 487.429,154.129 487.762,132.796 489,111.5C 487.474,107.146 484.974,103.479 481.5,100.5C 478.85,103.651 476.016,106.651 473,109.5C 472.333,130.5 472.333,151.5 473,172.5C 474.914,174.748 476.414,177.248 477.5,180C 473.225,185.947 468.558,191.613 463.5,197C 461.633,197.711 460.133,197.211 459,195.5C 454.791,190.245 450.958,184.745 447.5,179C 448.924,175.908 450.757,173.074 453,170.5C 453.935,147.114 453.435,123.781 451.5,100.5C 445.556,102.72 443.056,100.72 444,94.5C 449.426,88.9147 454.259,82.9147 458.5,76.5 Z"/></g>
<g><path style="opacity:1" fill="#060606" d="M 280.5,190.5 C 279.564,175.195 279.231,159.862 279.5,144.5C 280.657,135.676 280.824,126.676 280,117.5C 277.667,114.5 275.333,111.5 273,108.5C 270,111.833 267,115.167 264,118.5C 263.167,140.508 263.334,162.508 264.5,184.5C 266.608,186.382 267.941,188.715 268.5,191.5C 263.867,197.808 259.2,204.142 254.5,210.5C 253.635,211.583 252.635,211.749 251.5,211C 247.406,204.806 243.073,198.806 238.5,193C 239.951,190.047 241.618,187.213 243.5,184.5C 244.5,164.511 244.833,144.511 244.5,124.5C 244.72,119.9 244.054,115.567 242.5,111.5C 242.217,110.711 241.717,110.044 241,109.5C 239.867,111.211 238.367,111.711 236.5,111C 234.813,109.087 234.313,106.92 235,104.5C 239.713,98.2426 244.546,92.076 249.5,86C 252.789,85.2536 255.289,86.4203 257,89.5C 260.472,95.4406 262.638,101.774 263.5,108.5C 269.379,100.577 275.379,92.7433 281.5,85C 282.5,84.3333 283.5,84.3333 284.5,85C 288.362,89.2286 291.862,93.7286 295,98.5C 297.006,95.3283 299.506,92.6617 302.5,90.5C 305.688,91.8477 306.855,94.1811 306,97.5C 303.752,100.328 301.752,103.328 300,106.5C 298.667,130.488 298.334,154.488 299,178.5C 299.192,180.577 299.692,182.577 300.5,184.5C 305.948,180.103 308.781,181.436 309,188.5C 303.445,195.645 297.445,202.312 291,208.5C 284.694,204.233 281.194,198.233 280.5,190.5 Z"/></g>
<g><path style="opacity:1" fill="#171717" d="M 339.5,82.5 C 340.764,84.2701 342.264,85.9368 344,87.5C 345.5,93.0025 347,98.5025 348.5,104C 347.888,106.058 346.888,107.891 345.5,109.5C 341.253,101.026 339.253,92.0256 339.5,82.5 Z"/></g>
<g><path style="opacity:1" fill="#9f9f9f" d="M 389.5,109.5 C 389.825,101.648 389.492,93.9818 388.5,86.5C 388.783,85.7109 389.283,85.0442 390,84.5C 390.823,93.0104 390.657,101.344 389.5,109.5 Z"/></g>
<g><path style="opacity:1" fill="#f3f3f3" d="M 49.5,113.5 C 49.4126,108.463 49.746,103.463 50.5,98.5C 54.2265,89.4695 60.8931,85.9695 70.5,88C 79.2893,91.548 86.2893,97.2147 91.5,105C 89.8104,110.963 87.8104,116.796 85.5,122.5C 77.1812,126.155 68.5146,127.322 59.5,126C 54.3961,123.082 51.0627,118.915 49.5,113.5 Z M 65.5,103.5 C 65.5,106.5 65.5,109.5 65.5,112.5C 68.5,112.5 71.5,112.5 74.5,112.5C 73.2408,107.907 70.2408,104.907 65.5,103.5 Z"/></g>
<g><path style="opacity:1" fill="#0e0e0e" d="M 388.5,86.5 C 389.492,93.9818 389.825,101.648 389.5,109.5C 385.298,109.817 381.298,109.483 377.5,108.5C 381.193,101.114 384.86,93.7805 388.5,86.5 Z"/></g>
<g><path style="opacity:1" fill="#050505" d="M 618.5,92.5 C 622.27,93.7358 625.437,96.0691 628,99.5C 630.322,103.635 632.155,107.968 633.5,112.5C 639.323,106.509 644.989,100.343 650.5,94C 651.5,93.3333 652.5,93.3333 653.5,94C 657.921,102.18 662.588,110.18 667.5,118C 662.644,123.854 657.477,129.354 652,134.5C 647.861,130.014 644.028,125.181 640.5,120C 637.907,120.546 635.74,122.046 634,124.5C 633.333,145.833 633.333,167.167 634,188.5C 635.977,191.312 638.144,193.978 640.5,196.5C 642.659,194.005 645.326,192.339 648.5,191.5C 651.354,192.19 653.021,194.023 653.5,197C 645.976,205.523 638.142,213.69 630,221.5C 622.617,212.616 614.45,204.616 605.5,197.5C 607.956,191.009 609.79,184.342 611,177.5C 611.667,157.833 611.667,138.167 611,118.5C 610.586,118.043 610.086,117.709 609.5,117.5C 608.335,118.491 607.168,119.491 606,120.5C 603.5,119.333 601.667,117.5 600.5,115C 606.723,107.618 612.723,100.118 618.5,92.5 Z"/></g>
<g><path style="opacity:1" fill="#050505" d="M 219.5,111.5 C 218.076,113.515 217.41,115.848 217.5,118.5C 215.954,126.942 215.287,135.609 215.5,144.5C 215.61,161.041 216.61,177.375 218.5,193.5C 218.766,197.079 220.099,197.413 222.5,194.5C 224.596,195.592 225.929,197.259 226.5,199.5C 222.468,207.702 217.801,215.535 212.5,223C 209.211,223.746 206.711,222.58 205,219.5C 202.044,213.335 199.544,207.002 197.5,200.5C 193.138,206.362 188.972,212.362 185,218.5C 182.768,221.659 180.101,224.326 177,226.5C 168.731,218.292 163.898,208.292 162.5,196.5C 162.501,188.483 162.834,180.483 163.5,172.5C 166.718,161.342 171.385,150.842 177.5,141C 175.693,132.602 173.193,124.436 170,116.5C 169.002,112.527 168.669,108.527 169,104.5C 174.227,103.116 179.393,101.282 184.5,99C 186.355,97.1449 188.188,95.3116 190,93.5C 197.422,96.7937 204.589,100.46 211.5,104.5C 213.687,103.678 215.353,102.178 216.5,100C 219.553,98.9277 221.553,99.9277 222.5,103C 221.266,105.783 220.266,108.616 219.5,111.5 Z"/></g>
<g><path style="opacity:0.896" fill="#060606" d="M 76.5,118.5 C 71.8696,119.229 67.2029,119.563 62.5,119.5C 61.5416,119.047 60.7083,118.381 60,117.5C 57.7146,112.028 57.0479,106.362 58,100.5C 59.182,97.4774 61.3487,95.8107 64.5,95.5C 71.1289,96.9606 76.6289,100.294 81,105.5C 81.0485,109.539 80.5485,113.539 79.5,117.5C 78.209,117.263 77.209,117.596 76.5,118.5 Z M 65.5,103.5 C 65.5,106.5 65.5,109.5 65.5,112.5C 68.5,112.5 71.5,112.5 74.5,112.5C 73.2408,107.907 70.2408,104.907 65.5,103.5 Z"/></g>
<g><path style="opacity:1" fill="#676767" d="M 601.5,94.5 C 601.046,96.7411 601.046,98.7411 601.5,100.5C 601.44,101.043 601.107,101.376 600.5,101.5C 599.394,98.9335 599.727,96.6002 601.5,94.5 Z"/></g>
<g><path style="opacity:1" fill="#030303" d="M 520.5,97.5 C 521.833,121.167 521.833,144.833 520.5,168.5C 519.343,166.862 518.176,165.196 517,163.5C 516.333,143.5 516.333,123.5 517,103.5C 518.394,101.612 519.56,99.6125 520.5,97.5 Z"/></g>
<g><path style="opacity:1" fill="#050505" d="M 699.5,172.5 C 698.732,173.263 698.232,174.263 698,175.5C 697.178,183.345 697.344,191.011 698.5,198.5C 701.567,201.879 705.234,204.546 709.5,206.5C 713.87,202.96 718.37,199.626 723,196.5C 725.268,198.107 726.768,200.274 727.5,203C 718.9,211.6 710.233,220.267 701.5,229C 700.167,229.667 698.833,229.667 697.5,229C 690.443,221.803 682.109,216.637 672.5,213.5C 672.167,212.5 671.833,211.5 671.5,210.5C 676.013,200.789 678.179,190.455 678,179.5C 678.19,159.497 678.19,139.497 678,119.5C 681.167,117.667 684.333,115.833 687.5,114C 693.345,108.82 699.178,103.654 705,98.5C 714.381,110.767 722.881,123.6 730.5,137C 730.333,137.833 730.167,138.667 730,139.5C 721,148.5 712,157.5 703,166.5C 701.579,168.405 700.412,170.405 699.5,172.5 Z"/></g>
<g><path style="opacity:1" fill="#070707" d="M 434.5,99.5 C 437.5,105.5 440.5,111.5 443.5,117.5C 443.828,128.014 443.494,138.347 442.5,148.5C 442.157,146.775 441.157,146.275 439.5,147C 437.598,148.73 435.931,150.563 434.5,152.5C 433.167,134.833 433.167,117.167 434.5,99.5 Z"/></g>
<g><path style="opacity:1" fill="#5d5d5d" d="M 520.5,97.5 C 520.56,96.9569 520.893,96.6236 521.5,96.5C 522.833,120.833 522.833,145.167 521.5,169.5C 520.893,169.376 520.56,169.043 520.5,168.5C 521.833,144.833 521.833,121.167 520.5,97.5 Z"/></g>
<g><path style="opacity:1" fill="#f5f5f5" d="M 569.5,112.5 C 569.831,136.339 569.498,160.006 568.5,183.5C 563.693,180.26 558.693,177.26 553.5,174.5C 552.334,150.507 552.167,126.507 553,102.5C 553.637,100.697 554.803,99.3636 556.5,98.5C 560.855,103.187 565.188,107.854 569.5,112.5 Z"/></g>
<g><path style="opacity:0.774" fill="#0e0e0e" d="M 312.5,102.5 C 316.098,108.706 319.265,115.372 322,122.5C 325.959,126.457 329.126,130.957 331.5,136C 324.864,149.439 318.364,162.939 312,176.5C 310.907,174.651 309.574,172.984 308,171.5C 307.333,150.833 307.333,130.167 308,109.5C 310.02,107.449 311.52,105.116 312.5,102.5 Z M 313.5,163.5 C 317.381,154.569 321.715,145.735 326.5,137C 321.111,130.937 316.944,124.104 314,116.5C 313.5,132.163 313.333,147.83 313.5,163.5 Z"/></g>
<g><path style="opacity:1" fill="#646464" d="M 111.5,101.5 C 111.59,104.152 110.924,106.485 109.5,108.5C 109.41,105.848 110.076,103.515 111.5,101.5 Z"/></g>
<g><path style="opacity:1" fill="#808080" d="M 50.5,98.5 C 49.746,103.463 49.4126,108.463 49.5,113.5C 48.838,111.696 48.5046,109.696 48.5,107.5C 48.3425,104.186 49.0092,101.186 50.5,98.5 Z"/></g>
<g><path style="opacity:1" fill="#8a8a8a" d="M 377.5,108.5 C 381.298,109.483 385.298,109.817 389.5,109.5C 385.317,110.811 380.984,110.811 376.5,109.5C 376.624,108.893 376.957,108.56 377.5,108.5 Z"/></g>
<g><path style="opacity:1" fill="#7c7c7c" d="M 592.5,96.5 C 592.556,101.731 591.889,106.731 590.5,111.5C 590.444,106.269 591.111,101.269 592.5,96.5 Z"/></g>
<g><path style="opacity:1" fill="#737373" d="M 109.5,108.5 C 109.5,109.833 109.5,111.167 109.5,112.5C 110.791,112.263 111.791,112.596 112.5,113.5C 111.167,113.5 109.833,113.5 108.5,113.5C 108.216,111.585 108.549,109.919 109.5,108.5 Z"/></g>
<g><path style="opacity:1" fill="#050505" d="M 788.5,178.5 C 787.834,183.99 787.501,189.657 787.5,195.5C 787.302,203.726 787.969,211.726 789.5,219.5C 790.404,220.209 790.737,221.209 790.5,222.5C 794.803,222.963 796.636,225.296 796,229.5C 790.991,236.198 785.991,242.864 781,249.5C 779.056,248.561 777.389,247.227 776,245.5C 772.597,239.852 770.43,233.852 769.5,227.5C 769.808,225.076 769.474,222.743 768.5,220.5C 767.893,220.624 767.56,220.957 767.5,221.5C 760.488,229.55 753.488,237.55 746.5,245.5C 745.558,245.392 744.725,245.059 744,244.5C 738.214,235.64 734.714,225.974 733.5,215.5C 733.501,207.483 733.834,199.483 734.5,191.5C 737.499,180.169 742.665,169.836 750,160.5C 748.735,148.313 746.901,136.146 744.5,124C 744.603,122.439 744.937,120.939 745.5,119.5C 753.774,119.967 760.774,117.301 766.5,111.5C 773.303,115.804 779.97,120.304 786.5,125C 789.094,125.449 791.094,124.449 792.5,122C 793.448,121.517 794.448,121.351 795.5,121.5C 795.475,129.126 793.975,136.46 791,143.5C 789.923,155.154 789.09,166.82 788.5,178.5 Z"/></g>
<g><path style="opacity:1" fill="#8e8e8e" d="M 569.5,112.5 C 570.829,136.337 570.829,160.337 569.5,184.5C 568.893,184.376 568.56,184.043 568.5,183.5C 569.498,160.006 569.831,136.339 569.5,112.5 Z"/></g>
<g><path style="opacity:0.736" fill="#0a0a0a" d="M 227.5,114.5 C 230.144,117.773 232.311,121.44 234,125.5C 234.667,145.167 234.667,164.833 234,184.5C 232.833,186.167 231.667,187.833 230.5,189.5C 229.167,187.833 227.833,186.167 226.5,184.5C 225.501,171.183 225.167,157.85 225.5,144.5C 225.004,134.36 225.671,124.36 227.5,114.5 Z M 230.5,160.5 C 230.179,149.252 230.513,138.085 231.5,127C 231,126.5 230.5,126 230,125.5C 229.174,137.341 229.341,149.007 230.5,160.5 Z M 230.5,160.5 C 230.169,167.863 230.503,175.197 231.5,182.5C 231.833,181.667 232.167,180.833 232.5,180C 231.929,173.343 231.262,166.843 230.5,160.5 Z"/></g>
<g><path style="opacity:1" fill="#020202" d="M 560.5,115.5 C 561.154,134.197 560.487,152.53 558.5,170.5C 558.333,151.83 558.5,133.164 559,114.5C 559.383,115.056 559.883,115.389 560.5,115.5 Z"/></g>
<g><path style="opacity:1" fill="#eeeeee" d="M 178.5,115.5 C 183.955,118.729 189.621,121.729 195.5,124.5C 196.833,132.167 196.833,139.833 195.5,147.5C 183.557,140.286 177.89,129.619 178.5,115.5 Z"/></g>
<g><path style="opacity:1" fill="#020202" d="M 479.5,115.5 C 480.832,124.475 481.498,133.809 481.5,143.5C 481.333,152.833 481.167,162.167 481,171.5C 479.514,152.986 479.014,134.32 479.5,115.5 Z"/></g>
<g><path style="opacity:1" fill="#848484" d="M 219.5,111.5 C 219.59,114.152 218.924,116.485 217.5,118.5C 217.41,115.848 218.076,113.515 219.5,111.5 Z"/></g>
<g><path style="opacity:1" fill="#c4c4c4" d="M 443.5,117.5 C 444.823,128.007 444.823,138.674 443.5,149.5C 442.893,149.376 442.56,149.043 442.5,148.5C 443.494,138.347 443.828,128.014 443.5,117.5 Z"/></g>
<g><path style="opacity:1" fill="#454545" d="M 560.5,115.5 C 561.497,133.993 561.83,152.659 561.5,171.5C 560.209,171.737 559.209,171.404 558.5,170.5C 560.487,152.53 561.154,134.197 560.5,115.5 Z"/></g>
<g><path style="opacity:1" fill="#929292" d="M 76.5,118.5 C 73.9831,119.973 71.1498,120.64 68,120.5C 65.9674,120.494 64.134,120.161 62.5,119.5C 67.2029,119.563 71.8696,119.229 76.5,118.5 Z"/></g>
<g><path style="opacity:1" fill="#424242" d="M 97.5,118.5 C 103.167,119.167 108.833,119.833 114.5,120.5C 108.463,120.829 102.463,120.496 96.5,119.5C 96.6236,118.893 96.9569,118.56 97.5,118.5 Z"/></g>
<g><path style="opacity:1" fill="#161616" d="M 271.5,122.5 C 272.497,141.326 272.83,160.326 272.5,179.5C 272.5,180.5 272.5,181.5 272.5,182.5C 271.5,182.5 270.5,182.5 269.5,182.5C 269.333,163.164 269.5,143.83 270,124.5C 270.717,123.956 271.217,123.289 271.5,122.5 Z"/></g>
<g><path style="opacity:1" fill="#f2f2f2" d="M 863.5,121.5 C 872.881,120.605 879.714,124.271 884,132.5C 885.102,140.679 884.435,148.679 882,156.5C 875.286,168.764 868.453,180.93 861.5,193C 865.635,197.465 870.135,201.632 875,205.5C 875.579,226.178 875.245,246.845 874,267.5C 867.595,269.189 861.762,272.022 856.5,276C 850.333,282.167 844.167,288.333 838,294.5C 834.201,289.699 830.034,285.199 825.5,281C 820.927,277.652 815.927,276.819 810.5,278.5C 806.52,282.467 803.02,286.801 800,291.5C 794.76,284.596 789.927,277.429 785.5,270C 794.084,256.835 802.417,243.502 810.5,230C 806.4,225.9 802.233,221.733 798,217.5C 797.457,200.777 798.124,184.111 800,167.5C 802.778,161.248 807.111,156.248 813,152.5C 817.861,145.437 823.195,138.77 829,132.5C 835.489,137.653 841.989,142.819 848.5,148C 850.818,149.993 853.484,151.159 856.5,151.5C 855.969,148.763 855.136,146.096 854,143.5C 851.677,133.595 854.844,126.261 863.5,121.5 Z"/></g>
<g><path style="opacity:1" fill="#727272" d="M 242.5,111.5 C 244.054,115.567 244.72,119.9 244.5,124.5C 242.946,120.433 242.28,116.1 242.5,111.5 Z"/></g>
<g><path style="opacity:1" fill="#535353" d="M 227.5,114.5 C 225.671,124.36 225.004,134.36 225.5,144.5C 224.343,136.344 224.177,128.01 225,119.5C 225.374,117.509 226.207,115.842 227.5,114.5 Z"/></g>
<g><path style="opacity:1" fill="#515151" d="M 163.5,124.5 C 164.924,126.515 165.59,128.848 165.5,131.5C 164.076,129.485 163.41,127.152 163.5,124.5 Z"/></g>
<g><path style="opacity:1" fill="#747474" d="M 699.5,127.5 C 698.167,137.167 698.167,146.833 699.5,156.5C 699.44,157.043 699.107,157.376 698.5,157.5C 697.167,147.167 697.167,136.833 698.5,126.5C 699.107,126.624 699.44,126.957 699.5,127.5 Z"/></g>
<g><path style="opacity:1" fill="#101010" d="M 189.5,128.5 C 190.209,129.404 191.209,129.737 192.5,129.5C 192.5,131.833 192.5,134.167 192.5,136.5C 191.167,136.5 189.833,136.5 188.5,136.5C 188.277,134.658 187.943,132.825 187.5,131C 187.684,129.624 188.351,128.791 189.5,128.5 Z"/></g>
<g><path style="opacity:1" fill="#adadad" d="M 434.5,99.5 C 433.167,117.167 433.167,134.833 434.5,152.5C 434.44,153.043 434.107,153.376 433.5,153.5C 432.167,135.167 432.167,116.833 433.5,98.5C 434.107,98.6236 434.44,98.9569 434.5,99.5 Z"/></g>
<g><path style="opacity:1" fill="#1e1e1e" d="M 601.5,129.5 C 601.5,149.167 601.5,168.833 601.5,188.5C 600.883,188.611 600.383,188.944 600,189.5C 599.833,179.5 599.667,169.5 599.5,159.5C 599.501,149.144 600.168,139.144 601.5,129.5 Z"/></g>
<g><path style="opacity:1" fill="#f4f4f4" d="M 699.5,127.5 C 703.523,133.033 707.19,138.866 710.5,145C 706.624,148.707 702.957,152.541 699.5,156.5C 698.167,146.833 698.167,137.167 699.5,127.5 Z"/></g>
<g><path style="opacity:1" fill="#b8b8b8" d="M 601.5,129.5 C 600.168,139.144 599.501,149.144 599.5,159.5C 599.667,169.5 599.833,179.5 600,189.5C 600.383,188.944 600.883,188.611 601.5,188.5C 601.179,190.048 600.179,190.715 598.5,190.5C 598.5,169.833 598.5,149.167 598.5,128.5C 599.791,128.263 600.791,128.596 601.5,129.5 Z"/></g>
<g><path style="opacity:1" fill="#050505" d="M 807.5,214.5 C 806.783,198.844 806.45,183.177 806.5,167.5C 810.682,166.366 814.349,164.2 817.5,161C 822.068,155.327 826.735,149.827 831.5,144.5C 838.413,149.558 845.747,154.058 853.5,158C 857.167,158.667 860.833,158.667 864.5,158C 866.028,156.352 866.695,154.352 866.5,152C 865.351,147.535 864.351,143.035 863.5,138.5C 863.758,130.758 867.425,128.591 874.5,132C 876.941,134.653 877.941,137.82 877.5,141.5C 877.064,146.979 875.897,152.313 874,157.5C 867.374,170.596 859.874,183.096 851.5,195C 856.301,200.131 861.468,204.965 867,209.5C 867.667,227.167 867.667,244.833 867,262.5C 856.595,267.397 847.428,274.063 839.5,282.5C 830.722,273.407 820.055,269.574 807.5,271C 805.545,271.953 803.878,273.287 802.5,275C 798.964,274.989 796.63,273.156 795.5,269.5C 803.902,255.703 812.569,242.036 821.5,228.5C 817.092,223.425 812.425,218.758 807.5,214.5 Z"/></g>
<g><path style="opacity:1" fill="#808080" d="M 666.5,131.5 C 666.56,130.957 666.893,130.624 667.5,130.5C 668.828,152.996 668.828,175.33 667.5,197.5C 667.831,175.327 667.497,153.327 666.5,131.5 Z"/></g>
<g><path style="opacity:1" fill="#9e9e9e" d="M 189.5,128.5 C 190.833,128.5 192.167,128.5 193.5,128.5C 193.5,131.5 193.5,134.5 193.5,137.5C 191.585,137.784 189.919,137.451 188.5,136.5C 189.833,136.5 191.167,136.5 192.5,136.5C 192.5,134.167 192.5,131.833 192.5,129.5C 191.209,129.737 190.209,129.404 189.5,128.5 Z"/></g>
<g><path style="opacity:1" fill="#efefef" d="M 768.5,142.5 C 769.44,150.779 769.773,159.112 769.5,167.5C 757.999,159.423 752.666,148.256 753.5,134C 753.85,132.743 754.517,132.409 755.5,133C 759.508,136.665 763.841,139.832 768.5,142.5 Z"/></g>
<g><path style="opacity:1" fill="#464646" d="M 271.5,122.5 C 271.56,121.957 271.893,121.624 272.5,121.5C 273.828,140.996 273.828,160.329 272.5,179.5C 272.83,160.326 272.497,141.326 271.5,122.5 Z"/></g>
<g><path style="opacity:1" fill="#f1f1f1" d="M 376.5,138.5 C 383.833,138.5 391.167,138.5 398.5,138.5C 398.666,145.508 398.5,152.508 398,159.5C 393.652,164.015 389.152,168.349 384.5,172.5C 371.338,165.42 358.338,158.087 345.5,150.5C 347.121,146.756 349.121,143.256 351.5,140C 360.01,139.829 368.343,139.329 376.5,138.5 Z M 369.5,154.5 C 373.927,155.476 378.093,157.143 382,159.5C 383.685,157.983 385.185,156.316 386.5,154.5C 380.68,153.184 375.013,153.184 369.5,154.5 Z"/></g>
<g><path style="opacity:1" fill="#414141" d="M 642.5,139.5 C 642.171,154.343 642.504,169.01 643.5,183.5C 643.44,184.043 643.107,184.376 642.5,184.5C 642.167,176.833 641.833,169.167 641.5,161.5C 641.484,153.422 641.817,146.089 642.5,139.5 Z"/></g>
<g><path style="opacity:1" fill="#f4f4f4" d="M 35.5,141.5 C 38.5211,144.366 41.0211,147.7 43,151.5C 51.6194,161.964 62.1194,164.297 74.5,158.5C 74.8333,159 75.1667,159.5 75.5,160C 73.6083,164.057 71.9416,168.223 70.5,172.5C 57.0288,179.541 45.5288,177.208 36,165.5C 32.9285,157.524 32.7619,149.524 35.5,141.5 Z"/></g>
<g><path style="opacity:0.845" fill="#090909" d="M 737.5,142.5 C 742.264,151.452 741.431,159.785 735,167.5C 731.784,173.264 729.117,179.264 727,185.5C 721.238,188.964 715.738,192.797 710.5,197C 709.451,197.492 708.451,197.326 707.5,196.5C 706.335,189.189 706.169,181.856 707,174.5C 717.006,163.661 727.172,152.995 737.5,142.5 Z M 734.5,155.5 C 730.194,159.635 725.694,163.635 721,167.5C 719.729,170.433 718.062,173.099 716,175.5C 713.662,179.519 712.996,183.853 714,188.5C 716.506,186.991 719.006,185.491 721.5,184C 721.043,183.586 720.709,183.086 720.5,182.5C 722.796,179.467 724.63,176.133 726,172.5C 730.496,168.165 733.996,163.165 736.5,157.5C 736.145,156.478 735.478,155.811 734.5,155.5 Z"/></g>
<g><path style="opacity:1" fill="#9b9b9b" d="M 13.5,143.5 C 13.5905,146.152 12.9238,148.485 11.5,150.5C 11.4095,147.848 12.0762,145.515 13.5,143.5 Z"/></g>
<g><path style="opacity:0.736" fill="#161616" d="M 356.5,147.5 C 367.833,147.5 379.167,147.5 390.5,147.5C 390.665,150.518 390.498,153.518 390,156.5C 387.667,158.833 385.333,161.167 383,163.5C 374.452,159.142 365.952,154.642 357.5,150C 356.748,149.329 356.414,148.496 356.5,147.5 Z M 369.5,154.5 C 373.927,155.476 378.093,157.143 382,159.5C 383.685,157.983 385.185,156.316 386.5,154.5C 380.68,153.184 375.013,153.184 369.5,154.5 Z"/></g>
<g><path style="opacity:1" fill="#141414" d="M 761.5,146.5 C 762.583,146.539 763.583,146.873 764.5,147.5C 765.833,150.833 765.833,154.167 764.5,157.5C 762.127,154.332 761.127,150.665 761.5,146.5 Z"/></g>
<g><path style="opacity:1" fill="#4e4e4e" d="M 21.5,146.5 C 21.5905,149.152 20.9238,151.485 19.5,153.5C 19.4095,150.848 20.0762,148.515 21.5,146.5 Z"/></g>
<g><path style="opacity:1" fill="#757575" d="M 184.5,149.5 C 183.1,150.1 182.1,151.1 181.5,152.5C 181.5,151.167 181.5,149.833 181.5,148.5C 182.791,148.263 183.791,148.596 184.5,149.5 Z"/></g>
<g><path style="opacity:1" fill="#f1f1f1" d="M 184.5,149.5 C 188.902,152.123 193.069,155.123 197,158.5C 197.667,168.167 197.667,177.833 197,187.5C 194,191.5 191,195.5 188,199.5C 183.334,192.167 180.834,184.167 180.5,175.5C 180.523,167.817 180.857,160.15 181.5,152.5C 182.1,151.1 183.1,150.1 184.5,149.5 Z"/></g>
<g><path style="opacity:1" fill="#f4f4f4" d="M 129.5,199.5 C 130.163,197.527 130.496,195.361 130.5,193C 130.672,189.523 130.006,186.356 128.5,183.5C 124.856,175.695 118.856,170.528 110.5,168C 101.465,167.252 92.4653,167.419 83.5,168.5C 83.4744,163.915 84.4744,159.581 86.5,155.5C 89.1522,155.59 91.4855,154.924 93.5,153.5C 116.491,149.414 130.658,158.747 136,181.5C 137.358,196.972 135.358,211.972 130,226.5C 127.811,231.712 124.977,236.545 121.5,241C 117.373,240.53 113.539,239.03 110,236.5C 109.685,235.092 110.018,233.759 111,232.5C 120.826,223.51 126.993,212.51 129.5,199.5 Z"/></g>
<g><path style="opacity:1" fill="#8e8e8e" d="M 93.5,153.5 C 91.4855,154.924 89.1522,155.59 86.5,155.5C 88.5145,154.076 90.8478,153.41 93.5,153.5 Z"/></g>
<g><path style="opacity:1" fill="#999999" d="M 768.5,142.5 C 769.117,142.611 769.617,142.944 770,143.5C 770.823,151.677 770.656,159.677 769.5,167.5C 769.773,159.112 769.44,150.779 768.5,142.5 Z"/></g>
<g><path style="opacity:1" fill="#141414" d="M 188.5,161.5 C 190.044,161.703 191.378,162.37 192.5,163.5C 193.664,170.476 193.831,177.476 193,184.5C 191.981,185.687 190.814,186.687 189.5,187.5C 187.212,178.931 186.879,170.264 188.5,161.5 Z"/></g>
<g><path style="opacity:1" fill="#a5a5a5" d="M 181.5,152.5 C 180.857,160.15 180.523,167.817 180.5,175.5C 179.835,172.686 179.502,169.686 179.5,166.5C 179.354,161.576 180.021,156.909 181.5,152.5 Z"/></g>
<g><path style="opacity:1" fill="#858585" d="M 798.5,152.5 C 798.72,157.1 798.054,161.433 796.5,165.5C 796.28,160.9 796.946,156.567 798.5,152.5 Z"/></g>
<g><path style="opacity:1" fill="#ababab" d="M 217.5,118.5 C 216.324,143.511 216.657,168.511 218.5,193.5C 216.61,177.375 215.61,161.041 215.5,144.5C 215.287,135.609 215.954,126.942 217.5,118.5 Z"/></g>
<g><path style="opacity:1" fill="#3c3c3c" d="M 279.5,144.5 C 279.231,159.862 279.564,175.195 280.5,190.5C 279.732,189.737 279.232,188.737 279,187.5C 278.173,172.994 278.339,158.661 279.5,144.5 Z"/></g>
<g><path style="opacity:1" fill="#898989" d="M 46.5,167.5 C 46.9169,166.876 47.5836,166.543 48.5,166.5C 50.2662,167.091 51.9328,167.924 53.5,169C 51.0784,169.135 48.7451,168.635 46.5,167.5 Z"/></g>
<g><path style="opacity:1" fill="#f8f8f8" d="M 768.5,178.5 C 768.808,188.915 768.475,199.249 767.5,209.5C 764.854,212.812 761.854,215.812 758.5,218.5C 754.881,211.974 752.881,204.974 752.5,197.5C 752.501,189.483 752.834,181.483 753.5,173.5C 754.117,171.32 755.117,169.32 756.5,167.5C 761.146,170.48 765.146,174.147 768.5,178.5 Z"/></g>
<g><path style="opacity:1" fill="#f4f4f4" d="M 828.5,173.5 C 832.538,176.684 837.205,178.351 842.5,178.5C 845.167,179.167 847.833,179.833 850.5,180.5C 845.052,189.223 839.719,198.056 834.5,207C 833.833,207.667 833.167,207.667 832.5,207C 830.63,204.96 828.63,203.127 826.5,201.5C 825.861,191.773 826.528,182.44 828.5,173.5 Z"/></g>
<g><path style="opacity:1" fill="#636363" d="M 842.5,178.5 C 845.572,178.183 848.572,178.516 851.5,179.5C 851.376,180.107 851.043,180.44 850.5,180.5C 847.833,179.833 845.167,179.167 842.5,178.5 Z"/></g>
<g><path style="opacity:1" fill="#777777" d="M 699.5,172.5 C 698.623,181.133 698.289,189.8 698.5,198.5C 697.344,191.011 697.178,183.345 698,175.5C 698.232,174.263 698.732,173.263 699.5,172.5 Z"/></g>
<g><path style="opacity:1" fill="#868686" d="M 753.5,173.5 C 752.834,181.483 752.501,189.483 752.5,197.5C 751.835,194.518 751.502,191.352 751.5,188C 751.344,182.91 752.01,178.077 753.5,173.5 Z"/></g>
<g><path style="opacity:1" fill="#1a1a1a" d="M 831.5,185.5 C 833.312,185.771 834.978,186.438 836.5,187.5C 834.413,190.673 832.579,194.006 831,197.5C 830.393,193.463 830.56,189.463 831.5,185.5 Z"/></g>
<g><path style="opacity:1" fill="#393939" d="M 163.5,172.5 C 162.834,180.483 162.501,188.483 162.5,196.5C 161.835,193.518 161.502,190.352 161.5,187C 161.344,181.91 162.01,177.077 163.5,172.5 Z"/></g>
<g><path style="opacity:1" fill="#171717" d="M 758.5,185.5 C 759.833,192.167 759.833,198.833 758.5,205.5C 757.917,201.663 757.25,197.83 756.5,194C 756.864,191.079 757.531,188.246 758.5,185.5 Z"/></g>
<g><path style="opacity:1" fill="#666666" d="M 828.5,173.5 C 826.528,182.44 825.861,191.773 826.5,201.5C 825.506,192.014 825.173,182.348 825.5,172.5C 826.791,172.263 827.791,172.596 828.5,173.5 Z"/></g>
<g><path style="opacity:1" fill="#676767" d="M 128.5,183.5 C 130.006,186.356 130.672,189.523 130.5,193C 130.496,195.361 130.163,197.527 129.5,199.5C 129.608,194.13 129.275,188.797 128.5,183.5 Z"/></g>
<g><path style="opacity:1" fill="#575757" d="M 796.5,170.5 C 796.864,178.403 796.197,186.07 794.5,193.5C 794.82,185.656 795.487,177.989 796.5,170.5 Z"/></g>
<g><path style="opacity:1" fill="#7e7e7e" d="M 768.5,178.5 C 769.166,183.489 769.499,188.656 769.5,194C 769.495,199.546 768.828,204.712 767.5,209.5C 768.475,199.249 768.808,188.915 768.5,178.5 Z"/></g>
<g><path style="opacity:1" fill="#545454" d="M 788.5,178.5 C 788.329,192.184 788.662,205.851 789.5,219.5C 787.969,211.726 787.302,203.726 787.5,195.5C 787.501,189.657 787.834,183.99 788.5,178.5 Z"/></g>
<g><path style="opacity:1" fill="#777777" d="M 102.5,200.5 C 96.7969,200.375 91.1302,200.708 85.5,201.5C 88.5256,199.981 91.8589,199.315 95.5,199.5C 98.0254,199.503 100.359,199.837 102.5,200.5 Z"/></g>
<g><path style="opacity:1" fill="#f2f2f2" d="M 102.5,200.5 C 108.125,202.627 109.958,206.627 108,212.5C 105.984,218.703 102.817,224.203 98.5,229C 97.6667,229.167 96.8333,229.333 96,229.5C 86.9531,226.372 77.9531,223.039 69,219.5C 69.0346,214.687 70.0346,210.02 72,205.5C 76.2856,203.47 80.7856,202.137 85.5,201.5C 91.1302,200.708 96.7969,200.375 102.5,200.5 Z"/></g>
<g><path style="opacity:1" fill="#969696" d="M 758.5,205.5 C 759.833,198.833 759.833,192.167 758.5,185.5C 758.783,184.711 759.283,184.044 760,183.5C 760.831,191.188 760.665,198.855 759.5,206.5C 758.893,206.376 758.56,206.043 758.5,205.5 Z"/></g>
<g><path style="opacity:1" fill="#989898" d="M 806.5,167.5 C 806.45,183.177 806.783,198.844 807.5,214.5C 806.062,204.872 805.395,195.039 805.5,185C 805.501,178.99 805.834,173.157 806.5,167.5 Z"/></g>
<g><path style="opacity:1" fill="#474747" d="M 734.5,191.5 C 733.834,199.483 733.501,207.483 733.5,215.5C 732.835,212.518 732.502,209.352 732.5,206C 732.344,200.91 733.01,196.077 734.5,191.5 Z"/></g>
<g><path style="opacity:1" fill="#0e0e0e" d="M 88.5,209.5 C 92.5546,209.176 96.5546,209.509 100.5,210.5C 99.3424,214.823 97.1757,218.49 94,221.5C 88.7848,219.705 83.6182,218.039 78.5,216.5C 78.2865,214.856 78.6198,213.356 79.5,212C 82.6282,211.159 85.6282,210.325 88.5,209.5 Z"/></g>
<g><path style="opacity:1" fill="#f0f0f0" d="M 837.5,217.5 C 841.302,218.779 844.469,221.112 847,224.5C 847.832,234.849 847.666,245.183 846.5,255.5C 838.415,249.792 829.415,246.959 819.5,247C 825.648,237.194 831.648,227.361 837.5,217.5 Z"/></g>
<g><path style="opacity:1" fill="#525252" d="M 767.5,221.5 C 767.56,220.957 767.893,220.624 768.5,220.5C 769.474,222.743 769.808,225.076 769.5,227.5C 768.833,225.5 768.167,223.5 767.5,221.5 Z"/></g>
<g><path style="opacity:1" fill="#171717" d="M 839.5,229.5 C 840.139,230.097 840.472,230.93 840.5,232C 839.517,235.112 838.85,238.278 838.5,241.5C 836.654,241.778 835.32,241.111 834.5,239.5C 836.18,236.14 837.847,232.807 839.5,229.5 Z"/></g>
<g><path style="opacity:1" fill="#a7a7a7" d="M 49.5,249.5 C 43.4638,249.36 37.4638,249.693 31.5,250.5C 34.6952,248.97 38.1952,248.304 42,248.5C 44.6903,248.503 47.1903,248.836 49.5,249.5 Z"/></g>
<g><path style="opacity:1" fill="#f3f3f3" d="M 49.5,249.5 C 56.989,250.411 63.6556,253.245 69.5,258C 64.8012,263.034 59.8012,267.7 54.5,272C 40.2223,281.24 30.389,277.74 25,261.5C 24.0831,255.999 26.2498,252.333 31.5,250.5C 37.4638,249.693 43.4638,249.36 49.5,249.5 Z"/></g>
<g><path style="opacity:1" fill="#e2e2e2" d="M 591.5,253.5 C 602.201,252.763 612.867,251.763 623.5,250.5C 624.11,251.391 624.443,252.391 624.5,253.5C 624.821,255.048 625.821,255.715 627.5,255.5C 627.5,257.5 627.5,259.5 627.5,261.5C 626.91,262.766 626.41,264.099 626,265.5C 623.928,262.029 622.428,258.362 621.5,254.5C 610.074,254.809 598.741,255.976 587.5,258C 596.793,273.418 605.959,288.918 615,304.5C 614.879,312.273 613.046,319.606 609.5,326.5C 599.428,303.114 589.261,279.781 579,256.5C 567.915,255.513 556.748,255.179 545.5,255.5C 540.777,272.907 536.111,290.24 531.5,307.5C 532.112,304.304 532.112,301.304 531.5,298.5C 534.992,282.69 539.325,267.19 544.5,252C 550.167,251.667 555.833,251.333 561.5,251C 562,250.5 562.5,250 563,249.5C 572.398,251.184 581.898,252.517 591.5,253.5 Z"/></g>
<g><path style="opacity:1" fill="#ebebeb" d="M 635.5,250.5 C 637.167,250.5 638.833,250.5 640.5,250.5C 642.292,251.309 644.292,251.809 646.5,252C 680.165,252.5 713.832,252.667 747.5,252.5C 770.688,255.886 781.188,269.219 779,292.5C 777.374,294.917 775.874,297.417 774.5,300C 782.695,311.362 790.695,322.862 798.5,334.5C 797.624,335.251 796.624,335.751 795.5,336C 783.296,337.213 771.13,338.713 759,340.5C 755.933,339.418 752.766,338.752 749.5,338.5C 741.997,339.13 734.497,339.797 727,340.5C 706.87,338.995 686.703,337.995 666.5,337.5C 665.18,332.26 664.513,326.926 664.5,321.5C 665.374,323.282 666.374,325.615 667.5,328.5C 667.833,330.5 668.167,332.5 668.5,334.5C 684.992,335.497 701.658,335.83 718.5,335.5C 718.177,329.31 718.51,323.31 719.5,317.5C 720.608,323.815 721.608,330.148 722.5,336.5C 730.831,336.116 739.164,335.782 747.5,335.5C 749.833,335.5 752.167,335.5 754.5,335.5C 754.263,334.209 754.596,333.209 755.5,332.5C 756.868,336.001 759.535,337.335 763.5,336.5C 769.491,335.701 775.491,335.035 781.5,334.5C 784.914,334.264 788.247,333.598 791.5,332.5C 791.376,331.893 791.043,331.56 790.5,331.5C 783.526,320.851 776.526,310.184 769.5,299.5C 778.829,285.39 776.829,272.89 763.5,262C 758.639,258.823 753.305,256.823 747.5,256C 734.171,255.5 720.837,255.333 707.5,255.5C 707.448,257.903 707.781,260.236 708.5,262.5C 708.784,264.415 708.451,266.081 707.5,267.5C 705.852,263.571 704.185,259.571 702.5,255.5C 681.164,254.733 659.664,254.066 638,253.5C 634.979,253.502 632.146,253.836 629.5,254.5C 629.167,254.5 628.833,254.5 628.5,254.5C 627.566,253.432 627.232,252.099 627.5,250.5C 630.167,250.5 632.833,250.5 635.5,250.5 Z"/></g>
<g><path style="opacity:1" fill="#b5b5b5" d="M 136.5,252.5 C 147.321,251.505 158.321,251.172 169.5,251.5C 169.5,252.5 169.5,253.5 169.5,254.5C 158.755,252.558 147.755,251.891 136.5,252.5 Z"/></g>
<g><path style="opacity:1" fill="#b1b1b1" d="M 175.5,252.5 C 186.321,251.505 197.321,251.172 208.5,251.5C 208.784,253.415 208.451,255.081 207.5,256.5C 207.5,255.167 207.5,253.833 207.5,252.5C 196.833,252.5 186.167,252.5 175.5,252.5 Z"/></g>
<g><path style="opacity:1" fill="#7e7e7e" d="M 245.5,250.5 C 252.883,251.643 260.549,251.643 268.5,250.5C 260.901,252.951 253.235,252.951 245.5,250.5 Z"/></g>
<g><path style="opacity:1" fill="#e7e7e7" d="M 245.5,250.5 C 253.235,252.951 260.901,252.951 268.5,250.5C 273.301,250.221 277.968,250.888 282.5,252.5C 292.778,250.985 303.111,250.318 313.5,250.5C 311.833,267.169 310.167,283.835 308.5,300.5C 315.167,300.5 321.833,300.5 328.5,300.5C 328.927,296.176 329.261,291.842 329.5,287.5C 323.833,287.5 318.167,287.5 312.5,287.5C 315.849,276.12 319.515,264.786 323.5,253.5C 349.264,252.842 374.931,252.175 400.5,251.5C 402.473,250.837 404.639,250.504 407,250.5C 421.491,251.216 435.991,251.716 450.5,252C 458.09,253.544 464.59,257.044 470,262.5C 470.498,259.183 470.665,255.85 470.5,252.5C 473.167,252.5 475.833,252.5 478.5,252.5C 488.172,252.291 497.839,251.958 507.5,251.5C 507.179,256.695 507.513,261.695 508.5,266.5C 508.172,278.012 508.505,289.346 509.5,300.5C 512.984,301.165 516.651,301.499 520.5,301.5C 524.565,301.489 528.232,300.822 531.5,299.5C 531.5,299.167 531.5,298.833 531.5,298.5C 532.112,301.304 532.112,304.304 531.5,307.5C 530.566,306.432 530.232,305.099 530.5,303.5C 522.167,303.5 513.833,303.5 505.5,303.5C 505.821,298.305 505.487,293.305 504.5,288.5C 504.093,277.169 503.759,265.836 503.5,254.5C 493.45,254.508 483.45,255.174 473.5,256.5C 472.833,262.5 472.167,268.5 471.5,274.5C 468.685,265.52 462.685,259.686 453.5,257C 440.218,255.597 426.885,255.097 413.5,255.5C 412.211,267.646 411.545,279.979 411.5,292.5C 411.326,307.171 410.993,321.838 410.5,336.5C 421.142,335.26 431.809,334.26 442.5,333.5C 442.5,326.5 442.5,319.5 442.5,312.5C 459.227,312.097 469.227,303.764 472.5,287.5C 473.496,303.325 473.83,319.325 473.5,335.5C 493.5,335.5 513.5,335.5 533.5,335.5C 541.809,336.288 550.142,336.621 558.5,336.5C 558.909,332.124 559.575,327.79 560.5,323.5C 565.032,323.182 569.366,323.515 573.5,324.5C 574.103,327.041 574.103,329.374 573.5,331.5C 571.239,328.075 567.906,326.741 563.5,327.5C 563.478,331.611 562.811,335.611 561.5,339.5C 559.667,339.833 557.833,340.167 556,340.5C 527.867,338.7 499.7,338.034 471.5,338.5C 471.832,326.814 471.499,315.148 470.5,303.5C 469.893,303.624 469.56,303.957 469.5,304.5C 463.243,310.714 455.743,314.714 447,316.5C 446.5,323.158 446.334,329.825 446.5,336.5C 435.514,337.559 424.514,338.559 413.5,339.5C 408.152,337.889 402.818,337.556 397.5,338.5C 388.48,338.99 379.48,339.657 370.5,340.5C 371.609,325.188 372.276,309.855 372.5,294.5C 373.468,292.393 373.802,290.059 373.5,287.5C 371.5,287.5 369.5,287.5 367.5,287.5C 367.002,292.152 366.669,296.819 366.5,301.5C 365.9,313.505 365.233,325.505 364.5,337.5C 351.446,337.838 338.446,338.838 325.5,340.5C 325.566,336.441 325.733,332.441 326,328.5C 324.337,330.158 323.504,332.158 323.5,334.5C 322.566,335.568 322.232,336.901 322.5,338.5C 303.164,338.667 283.83,338.5 264.5,338C 265.481,333.21 265.981,328.376 266,323.5C 259.568,333.469 250.401,338.969 238.5,340C 228.508,341.796 219.175,340.13 210.5,335C 207.906,332.914 205.906,330.414 204.5,327.5C 205.404,326.791 205.737,325.791 205.5,324.5C 208.942,330.237 213.942,334.07 220.5,336C 234.156,338.723 246.489,336.057 257.5,328C 259.211,325.411 261.045,322.911 263,320.5C 263.438,317.624 264.438,314.957 266,312.5C 266.859,304.643 268.026,296.977 269.5,289.5C 270.972,285.081 271.638,280.414 271.5,275.5C 272.608,268.518 273.608,261.518 274.5,254.5C 264.451,254.799 254.451,255.465 244.5,256.5C 242.546,255.32 240.379,254.654 238,254.5C 229.49,255.145 220.99,255.812 212.5,256.5C 211.579,264.035 210.246,271.369 208.5,278.5C 208.386,276.282 207.72,274.282 206.5,272.5C 208.074,269.093 209.074,265.427 209.5,261.5C 209.833,258.833 210.167,256.167 210.5,253.5C 218.014,253.204 225.347,252.538 232.5,251.5C 236.735,250.564 241.069,250.231 245.5,250.5 Z M 314.5,293.5 C 314.586,294.496 314.252,295.329 313.5,296C 316.817,296.498 320.15,296.665 323.5,296.5C 323.5,295.5 323.5,294.5 323.5,293.5C 320.5,293.5 317.5,293.5 314.5,293.5 Z"/></g>
<g><path style="opacity:1" fill="#acacac" d="M 400.5,251.5 C 374.931,252.175 349.264,252.842 323.5,253.5C 348.812,251.509 374.478,250.843 400.5,251.5 Z"/></g>
<g><path style="opacity:1" fill="#9e9e9e" d="M 508.5,266.5 C 507.513,261.695 507.179,256.695 507.5,251.5C 497.839,251.958 488.172,252.291 478.5,252.5C 488.291,250.954 498.291,250.288 508.5,250.5C 508.5,255.833 508.5,261.167 508.5,266.5 Z"/></g>
<g><path style="opacity:1" fill="#b0b0b0" d="M 640.5,250.5 C 676.324,251.113 711.99,251.78 747.5,252.5C 713.832,252.667 680.165,252.5 646.5,252C 644.292,251.809 642.292,251.309 640.5,250.5 Z"/></g>
<g><path style="opacity:1" fill="#ededed" d="M 136.5,252.5 C 147.755,251.891 158.755,252.558 169.5,254.5C 169.5,256.5 169.5,258.5 169.5,260.5C 170.561,261.04 171.561,261.374 172.5,261.5C 171.205,265.423 169.372,269.09 167,272.5C 166.627,266.811 166.127,261.145 165.5,255.5C 156.167,255.5 146.833,255.5 137.5,255.5C 137.737,256.791 137.404,257.791 136.5,258.5C 135.596,257.791 135.263,256.791 135.5,255.5C 135.263,254.209 135.596,253.209 136.5,252.5 Z"/></g>
<g><path style="opacity:1" fill="#f0f0f0" d="M 175.5,252.5 C 186.167,252.5 196.833,252.5 207.5,252.5C 207.5,253.833 207.5,255.167 207.5,256.5C 207.5,258.5 207.5,260.5 207.5,262.5C 206.521,265.625 206.187,268.958 206.5,272.5C 207.72,274.282 208.386,276.282 208.5,278.5C 206.402,289.754 204.736,301.088 203.5,312.5C 203.413,316.652 204.08,320.652 205.5,324.5C 205.737,325.791 205.404,326.791 204.5,327.5C 204.217,326.711 203.717,326.044 203,325.5C 202.501,329.486 202.334,333.486 202.5,337.5C 191.526,338.553 180.526,339.22 169.5,339.5C 167.5,339.5 165.5,339.5 163.5,339.5C 163.343,338.127 163.51,336.793 164,335.5C 164.671,336.252 165.504,336.586 166.5,336.5C 176.851,336.081 187.184,335.414 197.5,334.5C 198.29,333.391 198.79,332.058 199,330.5C 199.499,325.177 199.666,319.844 199.5,314.5C 199.5,313.5 199.5,312.5 199.5,311.5C 200.538,304.347 201.204,297.014 201.5,289.5C 201.857,278.145 202.524,266.812 203.5,255.5C 193.955,255.157 184.622,254.157 175.5,252.5 Z"/></g>
<g><path style="opacity:1" fill="#989898" d="M 232.5,251.5 C 225.347,252.538 218.014,253.204 210.5,253.5C 217.588,251.761 224.921,251.094 232.5,251.5 Z"/></g>
<g><path style="opacity:1" fill="#9b9b9b" d="M 623.5,250.5 C 612.867,251.763 602.201,252.763 591.5,253.5C 600.807,251.844 610.307,250.51 620,249.5C 621.385,249.514 622.551,249.848 623.5,250.5 Z"/></g>
<g><path style="opacity:1" fill="#c1c1c1" d="M 175.5,252.5 C 184.622,254.157 193.955,255.157 203.5,255.5C 194.494,255.334 185.494,255.5 176.5,256C 175.512,258.167 174.179,260 172.5,261.5C 171.561,261.374 170.561,261.04 169.5,260.5C 171.5,257.833 173.5,255.167 175.5,252.5 Z"/></g>
<g><path style="opacity:1" fill="#140f0c" d="M 271.5,275.5 C 270.028,279.919 269.362,284.586 269.5,289.5C 268.026,296.977 266.859,304.643 266,312.5C 264.438,314.957 263.438,317.624 263,320.5C 261.045,322.911 259.211,325.411 257.5,328C 246.489,336.057 234.156,338.723 220.5,336C 213.942,334.07 208.942,330.237 205.5,324.5C 204.08,320.652 203.413,316.652 203.5,312.5C 204.736,301.088 206.402,289.754 208.5,278.5C 210.246,271.369 211.579,264.035 212.5,256.5C 220.99,255.812 229.49,255.145 238,254.5C 240.379,254.654 242.546,255.32 244.5,256.5C 254.451,255.465 264.451,254.799 274.5,254.5C 273.608,261.518 272.608,268.518 271.5,275.5 Z"/></g>
<g><path style="opacity:1" fill="#110c08" d="M 307.5,271.5 C 306.028,275.919 305.362,280.586 305.5,285.5C 304.477,291.749 303.81,298.082 303.5,304.5C 311.5,305.167 319.5,305.833 327.5,306.5C 324.433,315.37 321.766,324.37 319.5,333.5C 302.577,334.485 285.577,334.818 268.5,334.5C 268.5,333.5 268.5,332.5 268.5,331.5C 268.342,328.098 268.676,324.764 269.5,321.5C 270.889,316.731 271.556,311.731 271.5,306.5C 273.147,297.346 274.48,288.012 275.5,278.5C 276.167,271.167 276.833,263.833 277.5,256.5C 287.791,255.268 298.125,254.602 308.5,254.5C 308.093,260.161 307.76,265.828 307.5,271.5 Z"/></g>
<g><path style="opacity:1" fill="#120d09" d="M 504.5,288.5 C 504.5,293.833 504.5,299.167 504.5,304.5C 512.833,304.5 521.167,304.5 529.5,304.5C 528.793,307.786 528.46,311.119 528.5,314.5C 526.826,317.554 526.326,320.888 527,324.5C 528.624,321.014 529.79,317.347 530.5,313.5C 531.15,311.565 531.483,309.565 531.5,307.5C 536.111,290.24 540.777,272.907 545.5,255.5C 556.748,255.179 567.915,255.513 579,256.5C 589.261,279.781 599.428,303.114 609.5,326.5C 613.046,319.606 614.879,312.273 615,304.5C 605.959,288.918 596.793,273.418 587.5,258C 598.741,255.976 610.074,254.809 621.5,254.5C 622.428,258.362 623.928,262.029 626,265.5C 626.41,264.099 626.91,262.766 627.5,261.5C 628.468,259.393 628.802,257.059 628.5,254.5C 628.833,254.5 629.167,254.5 629.5,254.5C 653.822,255.369 678.155,255.702 702.5,255.5C 704.185,259.571 705.852,263.571 707.5,267.5C 708.032,269.63 708.865,271.63 710,273.5C 710.35,269.619 709.85,265.952 708.5,262.5C 707.781,260.236 707.448,257.903 707.5,255.5C 720.837,255.333 734.171,255.5 747.5,256C 753.305,256.823 758.639,258.823 763.5,262C 776.829,272.89 778.829,285.39 769.5,299.5C 776.526,310.184 783.526,320.851 790.5,331.5C 787.408,332.184 784.408,333.184 781.5,334.5C 775.491,335.035 769.491,335.701 763.5,336.5C 759.535,337.335 756.868,336.001 755.5,332.5C 753.804,328.978 753.138,329.644 753.5,334.5C 751.265,334.205 749.265,334.539 747.5,335.5C 739.164,335.782 730.831,336.116 722.5,336.5C 721.608,330.148 720.608,323.815 719.5,317.5C 719.44,316.957 719.107,316.624 718.5,316.5C 717.504,322.463 717.171,328.463 717.5,334.5C 701.167,334.5 684.833,334.5 668.5,334.5C 668.167,332.5 667.833,330.5 667.5,328.5C 665.74,316.845 664.073,305.178 662.5,293.5C 662.706,290.505 662.04,287.838 660.5,285.5C 660.274,279.419 659.441,273.419 658,267.5C 657.667,268.167 657.333,268.833 657,269.5C 652.261,291.875 647.428,314.209 642.5,336.5C 632.178,335.732 621.845,335.065 611.5,334.5C 600.174,335.348 588.841,336.015 577.5,336.5C 576.739,332.216 575.405,328.216 573.5,324.5C 569.366,323.515 565.032,323.182 560.5,323.5C 559.575,327.79 558.909,332.124 558.5,336.5C 550.142,336.621 541.809,336.288 533.5,335.5C 514.007,334.503 494.34,334.17 474.5,334.5C 474.667,318.497 474.5,302.497 474,286.5C 472.913,284.068 472.413,284.402 472.5,287.5C 469.227,303.764 459.227,312.097 442.5,312.5C 442.5,319.5 442.5,326.5 442.5,333.5C 431.809,334.26 421.142,335.26 410.5,336.5C 410.993,321.838 411.326,307.171 411.5,292.5C 412.924,280.361 413.591,268.028 413.5,255.5C 426.885,255.097 440.218,255.597 453.5,257C 462.685,259.686 468.685,265.52 471.5,274.5C 471.709,275.922 472.209,277.255 473,278.5C 473.5,271.174 473.666,263.841 473.5,256.5C 483.45,255.174 493.45,254.508 503.5,254.5C 503.759,265.836 504.093,277.169 504.5,288.5 Z"/></g>
<g><path style="opacity:1" fill="#a0a0a0" d="M 635.5,250.5 C 632.833,250.5 630.167,250.5 627.5,250.5C 627.232,252.099 627.566,253.432 628.5,254.5C 628.802,257.059 628.468,259.393 627.5,261.5C 627.5,259.5 627.5,257.5 627.5,255.5C 625.821,255.715 624.821,255.048 624.5,253.5C 626.176,252.817 626.843,251.483 626.5,249.5C 629.713,249.19 632.713,249.523 635.5,250.5 Z"/></g>
<g><path style="opacity:1" fill="#b2b2b2" d="M 629.5,254.5 C 632.146,253.836 634.979,253.502 638,253.5C 659.664,254.066 681.164,254.733 702.5,255.5C 678.155,255.702 653.822,255.369 629.5,254.5 Z"/></g>
<g><path style="opacity:1" fill="#120e0b" d="M 172.5,261.5 C 174.179,260 175.512,258.167 176.5,256C 185.494,255.5 194.494,255.334 203.5,255.5C 202.524,266.812 201.857,278.145 201.5,289.5C 199.761,296.588 199.094,303.921 199.5,311.5C 199.5,312.5 199.5,313.5 199.5,314.5C 198.617,321.002 197.951,327.668 197.5,334.5C 187.184,335.414 176.851,336.081 166.5,336.5C 166.803,330.815 166.97,325.148 167,319.5C 161.667,328.833 156.333,338.167 151,347.5C 150.817,344.635 150.317,341.969 149.5,339.5C 149.404,333.627 148.737,327.96 147.5,322.5C 147.785,320.712 147.452,319.045 146.5,317.5C 143.705,323.553 141.705,329.886 140.5,336.5C 131.518,335.782 122.518,335.448 113.5,335.5C 112.081,334.549 110.415,334.216 108.5,334.5C 117.801,309.217 127.134,283.884 136.5,258.5C 137.404,257.791 137.737,256.791 137.5,255.5C 146.833,255.5 156.167,255.5 165.5,255.5C 166.127,261.145 166.627,266.811 167,272.5C 169.372,269.09 171.205,265.423 172.5,261.5 Z"/></g>
<g><path style="opacity:1" fill="#120d0a" d="M 375.5,292.5 C 376.477,289.713 376.81,286.713 376.5,283.5C 371.968,283.182 367.634,283.515 363.5,284.5C 362.541,300.844 361.374,317.178 360,333.5C 349.574,334.766 339.074,335.766 328.5,336.5C 329.439,319.112 330.773,301.779 332.5,284.5C 327.251,284.141 322.251,283.141 317.5,281.5C 319.868,272.683 322.534,264.017 325.5,255.5C 344.683,255.224 363.849,255.557 383,256.5C 391.506,255.812 400.006,255.146 408.5,254.5C 407.131,281.15 406.131,307.817 405.5,334.5C 394.826,335.056 384.159,335.723 373.5,336.5C 374.462,321.848 375.129,307.182 375.5,292.5 Z"/></g>
<g><path style="opacity:1" fill="#0e0e0e" d="M 35.5,256.5 C 42.8385,256.222 49.8385,257.556 56.5,260.5C 52.5074,265.416 47.3407,268.416 41,269.5C 35.8321,266.505 33.9987,262.172 35.5,256.5 Z"/></g>
<g><path style="opacity:1" fill="#572d09" d="M 263.5,259.5 C 265.265,258.539 267.265,258.205 269.5,258.5C 269.784,260.415 269.451,262.081 268.5,263.5C 268.5,262.167 268.5,260.833 268.5,259.5C 266.833,259.5 265.167,259.5 263.5,259.5 Z"/></g>
<g><path style="opacity:1" fill="#703a0c" d="M 303.5,263.5 C 303.5,262.167 303.5,260.833 303.5,259.5C 296.529,260.29 289.529,260.623 282.5,260.5C 289.653,259.462 296.986,258.796 304.5,258.5C 304.784,260.415 304.451,262.081 303.5,263.5 Z"/></g>
<g><path style="opacity:1" fill="#a1530f" d="M 141.5,260.5 C 147.979,259.509 154.646,259.176 161.5,259.5C 161.5,260.833 161.5,262.167 161.5,263.5C 160.596,262.791 160.263,261.791 160.5,260.5C 154.167,260.5 147.833,260.5 141.5,260.5 Z"/></g>
<g><path style="opacity:1" fill="#87460e" d="M 499.5,270.5 C 498.518,267.038 498.185,263.371 498.5,259.5C 491.815,260.057 485.148,260.724 478.5,261.5C 478.5,284.5 478.5,307.5 478.5,330.5C 477.502,307.006 477.169,283.339 477.5,259.5C 484.854,259.521 492.187,259.187 499.5,258.5C 499.5,262.5 499.5,266.5 499.5,270.5 Z"/></g>
<g><path style="opacity:1" fill="#994f0f" d="M 637.5,258.5 C 643.373,258.596 649.04,259.263 654.5,260.5C 648.583,260.784 642.916,260.117 637.5,258.5 Z"/></g>
<g><path style="opacity:1" fill="#a2540f" d="M 699.5,260.5 C 687.167,260.5 674.833,260.5 662.5,260.5C 662.5,261.833 662.5,263.167 662.5,264.5C 661.549,263.081 661.216,261.415 661.5,259.5C 674.344,259.171 687.011,259.505 699.5,260.5 Z"/></g>
<g><path style="opacity:1" fill="#a1530f" d="M 746.5,260.5 C 735.495,260.333 724.495,260.5 713.5,261C 714.444,263.719 714.777,266.552 714.5,269.5C 713.566,266.344 712.899,263.011 712.5,259.5C 724.012,259.172 735.346,259.505 746.5,260.5 Z"/></g>
<g><path style="opacity:1" fill="#8b480e" d="M 617.5,259.5 C 609.909,259.668 602.576,260.668 595.5,262.5C 594.957,262.44 594.624,262.107 594.5,261.5C 600.52,259.813 606.687,258.813 613,258.5C 614.707,258.508 616.207,258.842 617.5,259.5 Z"/></g>
<g><path style="opacity:1" fill="#e37616" d="M 637.5,258.5 C 642.916,260.117 648.583,260.784 654.5,260.5C 649.21,284.088 644.21,307.755 639.5,331.5C 631.132,331.194 622.799,330.527 614.5,329.5C 615.618,322.646 617.451,315.979 620,309.5C 620.667,307.833 620.667,306.167 620,304.5C 611.569,290.637 603.403,276.637 595.5,262.5C 602.576,260.668 609.909,259.668 617.5,259.5C 620.958,265.739 624.458,272.073 628,278.5C 629.761,272.6 631.095,266.6 632,260.5C 633.401,258.808 635.234,258.141 637.5,258.5 Z"/></g>
<g><path style="opacity:1" fill="#e37616" d="M 198.5,266.5 C 197.435,273.317 196.768,280.317 196.5,287.5C 195.712,302 194.712,316.333 193.5,330.5C 186.142,330.418 178.809,330.752 171.5,331.5C 171.5,329.167 171.5,326.833 171.5,324.5C 172.958,315.634 173.791,306.634 174,297.5C 167.577,308.406 161.41,319.406 155.5,330.5C 154.883,330.611 154.383,330.944 154,331.5C 153.722,330.584 153.222,329.918 152.5,329.5C 151.364,318.504 150.197,307.504 149,296.5C 144.798,308.22 140.631,319.887 136.5,331.5C 131.507,331.084 126.507,330.751 121.5,330.5C 119.076,330.808 116.743,330.474 114.5,329.5C 122.94,306.164 131.94,283.164 141.5,260.5C 147.833,260.5 154.167,260.5 160.5,260.5C 160.263,261.791 160.596,262.791 161.5,263.5C 162.039,271.226 163.039,278.893 164.5,286.5C 169.12,277.423 174.12,268.59 179.5,260C 185.825,259.5 192.158,259.334 198.5,259.5C 198.5,261.833 198.5,264.167 198.5,266.5 Z"/></g>
<g><path style="opacity:1" fill="#e47616" d="M 242.5,290.5 C 244.23,286.117 245.23,281.45 245.5,276.5C 246.094,271.154 246.761,265.82 247.5,260.5C 252.845,260.313 258.178,259.98 263.5,259.5C 265.167,259.5 266.833,259.5 268.5,259.5C 268.5,260.833 268.5,262.167 268.5,263.5C 267.166,274.172 265.833,284.838 264.5,295.5C 262.825,298.507 262.159,301.84 262.5,305.5C 261.055,320.277 253.055,328.944 238.5,331.5C 231.798,331.664 225.131,331.331 218.5,330.5C 212.965,327.953 209.631,323.62 208.5,317.5C 208.701,311.491 209.034,305.491 209.5,299.5C 209.5,298.833 209.5,298.167 209.5,297.5C 210.924,295.485 211.59,293.152 211.5,290.5C 212.782,280.81 214.282,271.143 216,261.5C 223.378,259.996 230.878,259.329 238.5,259.5C 237.118,272.346 234.951,285.013 232,297.5C 231.333,301.5 231.333,305.5 232,309.5C 234.244,311.994 236.577,311.994 239,309.5C 240.585,303.239 241.751,296.906 242.5,290.5 Z"/></g>
<g><path style="opacity:1" fill="#e57716" d="M 303.5,263.5 C 302.555,273.835 301.555,284.168 300.5,294.5C 299.732,295.263 299.232,296.263 299,297.5C 298.501,301.486 298.334,305.486 298.5,309.5C 306.573,308.868 314.24,309.535 321.5,311.5C 319.809,317.595 317.809,323.595 315.5,329.5C 301.516,330.499 287.516,330.833 273.5,330.5C 275.107,310.648 277.44,290.981 280.5,271.5C 281.525,268.026 282.192,264.36 282.5,260.5C 289.529,260.623 296.529,260.29 303.5,259.5C 303.5,260.833 303.5,262.167 303.5,263.5 Z"/></g>
<g><path style="opacity:1" fill="#e27516" d="M 372.5,279.5 C 368.167,279.5 363.833,279.5 359.5,279.5C 359.5,281.167 359.5,282.833 359.5,284.5C 358.265,299.651 356.931,314.651 355.5,329.5C 348.16,330.107 340.827,330.773 333.5,331.5C 333.5,329.167 333.5,326.833 333.5,324.5C 334.873,309.821 336.206,295.154 337.5,280.5C 332.544,279.506 327.544,279.173 322.5,279.5C 324.302,272.763 326.302,266.096 328.5,259.5C 343.5,259.5 358.5,259.5 373.5,259.5C 373.046,266.159 372.713,272.826 372.5,279.5 Z"/></g>
<g><path style="opacity:1" fill="#e27516" d="M 393.5,330.5 C 388.493,330.751 383.493,331.084 378.5,331.5C 378.5,327.833 378.5,324.167 378.5,320.5C 379.995,300.679 380.995,280.679 381.5,260.5C 388.804,259.698 396.138,259.365 403.5,259.5C 403.013,283.172 402.346,306.839 401.5,330.5C 398.833,330.5 396.167,330.5 393.5,330.5 Z"/></g>
<g><path style="opacity:1" fill="#e47616" d="M 448.5,260.5 C 453.531,260.701 457.864,262.534 461.5,266C 463.808,268.128 465.474,270.628 466.5,273.5C 467.275,278.797 467.608,284.13 467.5,289.5C 464.913,299.915 458.247,306.082 447.5,308C 444.518,308.498 441.518,308.665 438.5,308.5C 438.825,315.687 438.491,322.687 437.5,329.5C 430.183,330.118 422.849,330.451 415.5,330.5C 415.5,323.167 415.5,315.833 415.5,308.5C 415.872,297.501 416.206,286.501 416.5,275.5C 417.487,270.695 417.821,265.695 417.5,260.5C 427.833,260.5 438.167,260.5 448.5,260.5 Z"/></g>
<g><path style="opacity:1" fill="#e67716" d="M 499.5,270.5 C 500.327,283.482 500.661,296.482 500.5,309.5C 508.5,309.5 516.5,309.5 524.5,309.5C 523.963,314.186 523.296,318.853 522.5,323.5C 521.076,325.515 520.41,327.848 520.5,330.5C 506.5,330.5 492.5,330.5 478.5,330.5C 478.5,307.5 478.5,284.5 478.5,261.5C 485.148,260.724 491.815,260.057 498.5,259.5C 498.185,263.371 498.518,267.038 499.5,270.5 Z"/></g>
<g><path style="opacity:1" fill="#e37616" d="M 546.5,270.5 C 548.074,268.898 548.741,266.898 548.5,264.5C 548.286,262.856 548.62,261.356 549.5,260C 558.412,259.184 567.245,259.35 576,260.5C 585.828,283.49 595.661,306.49 605.5,329.5C 597.188,331.115 588.855,331.448 580.5,330.5C 579.26,326.944 577.927,323.444 576.5,320C 570.175,319.5 563.842,319.334 557.5,319.5C 556.5,323.5 555.5,327.5 554.5,331.5C 546.49,331.356 538.49,331.023 530.5,330.5C 534.921,310.141 540.255,290.141 546.5,270.5 Z"/></g>
<g><path style="opacity:1" fill="#e67716" d="M 699.5,260.5 C 701.809,265.732 704.143,271.065 706.5,276.5C 699.866,277.497 693.2,277.83 686.5,277.5C 686.993,279.806 687.326,282.139 687.5,284.5C 692.167,284.5 696.833,284.5 701.5,284.5C 702.167,290.5 702.833,296.5 703.5,302.5C 699.167,302.5 694.833,302.5 690.5,302.5C 690.993,304.806 691.326,307.139 691.5,309.5C 698.648,310.492 705.981,310.825 713.5,310.5C 713.5,315.167 713.5,319.833 713.5,324.5C 713.5,326.5 713.5,328.5 713.5,330.5C 699.5,330.5 685.5,330.5 671.5,330.5C 671.5,328.167 671.5,325.833 671.5,323.5C 671.631,318.152 670.631,313.152 668.5,308.5C 666.78,293.792 664.78,279.125 662.5,264.5C 662.5,263.167 662.5,261.833 662.5,260.5C 674.833,260.5 687.167,260.5 699.5,260.5 Z"/></g>
<g><path style="opacity:1" fill="#e47616" d="M 746.5,260.5 C 764.36,263.197 772.193,273.53 770,291.5C 768.152,294.011 766.319,296.511 764.5,299C 770.453,309.072 776.787,318.905 783.5,328.5C 775.605,330.487 767.605,331.321 759.5,331C 755.202,322.232 750.535,313.732 745.5,305.5C 745.029,304.099 744.362,302.766 743.5,301.5C 743.167,302 742.833,302.5 742.5,303C 743.029,306.757 744.029,310.257 745.5,313.5C 746.885,319.091 747.885,324.757 748.5,330.5C 741.187,331.187 733.854,331.521 726.5,331.5C 725.549,330.081 725.216,328.415 725.5,326.5C 725.59,323.848 724.924,321.515 723.5,319.5C 721.054,302.702 718.054,286.035 714.5,269.5C 714.777,266.552 714.444,263.719 713.5,261C 724.495,260.5 735.495,260.333 746.5,260.5 Z"/></g>
<g><path style="opacity:1" fill="#919191" d="M 14.5,247.5 C 14.3357,254.202 14.669,260.869 15.5,267.5C 13.9524,263.966 13.2857,260.133 13.5,256C 13.5022,252.979 13.8356,250.146 14.5,247.5 Z"/></g>
<g><path style="opacity:1" fill="#7f7f7f" d="M 209.5,261.5 C 209.074,265.427 208.074,269.093 206.5,272.5C 206.187,268.958 206.521,265.625 207.5,262.5C 207.369,263.239 207.536,263.906 208,264.5C 208.232,263.263 208.732,262.263 209.5,261.5 Z"/></g>
<g><path style="opacity:1" fill="#562d0b" d="M 282.5,260.5 C 282.192,264.36 281.525,268.026 280.5,271.5C 280.116,267.511 280.783,263.845 282.5,260.5 Z"/></g>
<g><path style="opacity:1" fill="#a9a9a9" d="M 708.5,262.5 C 709.85,265.952 710.35,269.619 710,273.5C 708.865,271.63 708.032,269.63 707.5,267.5C 708.451,266.081 708.784,264.415 708.5,262.5 Z"/></g>
<g><path style="opacity:1" fill="#8b480e" d="M 548.5,264.5 C 548.741,266.898 548.074,268.898 546.5,270.5C 546.259,268.102 546.926,266.102 548.5,264.5 Z"/></g>
<g><path style="opacity:1" fill="#e0e0e0" d="M 660.5,285.5 C 660.565,288.428 661.232,291.095 662.5,293.5C 664.073,305.178 665.74,316.845 667.5,328.5C 666.374,325.615 665.374,323.282 664.5,321.5C 661.466,310.472 659.299,299.138 658,287.5C 653.615,304.98 649.448,322.48 645.5,340C 634.862,339.382 624.195,338.549 613.5,337.5C 601.845,338.745 590.179,339.745 578.5,340.5C 577.833,340.167 577.167,339.833 576.5,339.5C 575.422,336.793 574.422,334.126 573.5,331.5C 574.103,329.374 574.103,327.041 573.5,324.5C 575.405,328.216 576.739,332.216 577.5,336.5C 588.841,336.015 600.174,335.348 611.5,334.5C 621.845,335.065 632.178,335.732 642.5,336.5C 647.428,314.209 652.261,291.875 657,269.5C 657.333,268.833 657.667,268.167 658,267.5C 659.441,273.419 660.274,279.419 660.5,285.5 Z"/></g>
<g><path style="opacity:1" fill="#82430d" d="M 448.5,260.5 C 438.167,260.5 427.833,260.5 417.5,260.5C 417.821,265.695 417.487,270.695 416.5,275.5C 416.5,270.167 416.5,264.833 416.5,259.5C 427.346,259.172 438.013,259.506 448.5,260.5 Z"/></g>
<g><path style="opacity:1" fill="#6f6f6f" d="M 473.5,256.5 C 473.666,263.841 473.5,271.174 473,278.5C 472.209,277.255 471.709,275.922 471.5,274.5C 472.167,268.5 472.833,262.5 473.5,256.5 Z"/></g>
<g><path style="opacity:1" fill="#181818" d="M 586.5,262.5 C 595.726,277.271 604.726,292.271 613.5,307.5C 612.431,310.539 611.265,313.539 610,316.5C 601.902,298.636 594.069,280.636 586.5,262.5 Z"/></g>
<g><path style="opacity:1" fill="#100701" d="M 439.5,276.5 C 445.82,276.32 448.32,279.32 447,285.5C 446.777,287.881 445.61,289.547 443.5,290.5C 442.167,290.5 440.833,290.5 439.5,290.5C 439.5,285.833 439.5,281.167 439.5,276.5 Z"/></g>
<g><path style="opacity:1" fill="#381d05" d="M 372.5,279.5 C 368.702,280.483 364.702,280.817 360.5,280.5C 360.768,282.099 360.434,283.432 359.5,284.5C 359.5,282.833 359.5,281.167 359.5,279.5C 363.833,279.5 368.167,279.5 372.5,279.5 Z"/></g>
<g><path style="opacity:1" fill="#110c08" d="M 738.5,278.5 C 747.726,279.05 751.06,283.716 748.5,292.5C 746.49,294.171 744.157,294.838 741.5,294.5C 740.5,289.167 739.5,283.833 738.5,278.5 Z"/></g>
<g><path style="opacity:1" fill="#49260b" d="M 198.5,266.5 C 198.666,271.844 198.499,277.177 198,282.5C 197.802,284.382 197.302,286.048 196.5,287.5C 196.768,280.317 197.435,273.317 198.5,266.5 Z"/></g>
<g><path style="opacity:1" fill="#713a0c" d="M 245.5,276.5 C 245.23,281.45 244.23,286.117 242.5,290.5C 242.77,285.55 243.77,280.883 245.5,276.5 Z"/></g>
<g><path style="opacity:1" fill="#919191" d="M 271.5,275.5 C 271.638,280.414 270.972,285.081 269.5,289.5C 269.362,284.586 270.028,279.919 271.5,275.5 Z"/></g>
<g><path style="opacity:1" fill="#797979" d="M 317.5,281.5 C 322.251,283.141 327.251,284.141 332.5,284.5C 327.167,284.5 321.833,284.5 316.5,284.5C 316.263,283.209 316.596,282.209 317.5,281.5 Z"/></g>
<g><path style="opacity:1" fill="#757575" d="M 363.5,284.5 C 367.634,283.515 371.968,283.182 376.5,283.5C 376.81,286.713 376.477,289.713 375.5,292.5C 375.5,289.833 375.5,287.167 375.5,284.5C 371.5,284.5 367.5,284.5 363.5,284.5 Z"/></g>
<g><path style="opacity:1" fill="#150a01" d="M 563.5,281.5 C 566.593,287.097 568.926,293.097 570.5,299.5C 567.232,300.487 563.898,300.82 560.5,300.5C 561.035,294.086 562.035,287.752 563.5,281.5 Z"/></g>
<g><path style="opacity:1" fill="#e6e6e6" d="M 714.5,295.5 C 714.963,298.482 715.296,301.482 715.5,304.5C 712.789,304.815 710.456,304.148 708.5,302.5C 706.847,295.949 705.847,289.282 705.5,282.5C 707.924,282.192 710.257,282.526 712.5,283.5C 713.598,287.423 714.265,291.423 714.5,295.5 Z"/></g>
<g><path style="opacity:1" fill="#a1a1a1" d="M 275.5,278.5 C 274.48,288.012 273.147,297.346 271.5,306.5C 271.64,296.852 272.973,287.519 275.5,278.5 Z"/></g>
<g><path style="opacity:1" fill="#8b8b8b" d="M 307.5,271.5 C 307.638,276.414 306.972,281.081 305.5,285.5C 305.362,280.586 306.028,275.919 307.5,271.5 Z"/></g>
<g><path style="opacity:1" fill="#d9d9d9" d="M 135.5,255.5 C 135.263,256.791 135.596,257.791 136.5,258.5C 127.134,283.884 117.801,309.217 108.5,334.5C 110.415,334.216 112.081,334.549 113.5,335.5C 111.5,335.5 109.5,335.5 107.5,335.5C 107.737,334.209 107.404,333.209 106.5,332.5C 115.203,306.382 124.869,280.715 135.5,255.5 Z"/></g>
<g><path style="opacity:1" fill="#9c510f" d="M 466.5,273.5 C 467.222,273.918 467.722,274.584 468,275.5C 468.815,280.352 468.648,285.019 467.5,289.5C 467.608,284.13 467.275,278.797 466.5,273.5 Z"/></g>
<g><path style="opacity:1" fill="#4a2608" d="M 439.5,276.5 C 439.5,281.167 439.5,285.833 439.5,290.5C 440.833,290.5 442.167,290.5 443.5,290.5C 442.081,291.451 440.415,291.784 438.5,291.5C 438.179,286.305 438.513,281.305 439.5,276.5 Z"/></g>
<g><path style="opacity:1" fill="#545454" d="M 372.5,294.5 C 372.5,292.5 372.5,290.5 372.5,288.5C 371.167,288.5 369.833,288.5 368.5,288.5C 368.562,293.076 367.895,297.409 366.5,301.5C 366.669,296.819 367.002,292.152 367.5,287.5C 369.5,287.5 371.5,287.5 373.5,287.5C 373.802,290.059 373.468,292.393 372.5,294.5 Z"/></g>
<g><path style="opacity:1" fill="#585858" d="M 413.5,255.5 C 413.591,268.028 412.924,280.361 411.5,292.5C 411.545,279.979 412.211,267.646 413.5,255.5 Z"/></g>
<g><path style="opacity:1" fill="#555555" d="M 660.5,285.5 C 662.04,287.838 662.706,290.505 662.5,293.5C 661.232,291.095 660.565,288.428 660.5,285.5 Z"/></g>
<g><path style="opacity:1" fill="#592e0a" d="M 211.5,290.5 C 211.59,293.152 210.924,295.485 209.5,297.5C 209.41,294.848 210.076,292.515 211.5,290.5 Z"/></g>
<g><path style="opacity:1" fill="#909090" d="M 531.5,299.5 C 528.232,300.822 524.565,301.489 520.5,301.5C 516.651,301.499 512.984,301.165 509.5,300.5C 516.92,300.797 524.254,300.464 531.5,299.5 Z"/></g>
<g><path style="opacity:1" fill="#81420d" d="M 264.5,295.5 C 264.247,299.04 263.581,302.373 262.5,305.5C 262.159,301.84 262.825,298.507 264.5,295.5 Z"/></g>
<g><path style="opacity:1" fill="#6c6c6c" d="M 201.5,289.5 C 201.204,297.014 200.538,304.347 199.5,311.5C 199.094,303.921 199.761,296.588 201.5,289.5 Z"/></g>
<g><path style="opacity:1" fill="#c1c1c1" d="M 504.5,288.5 C 505.487,293.305 505.821,298.305 505.5,303.5C 513.833,303.5 522.167,303.5 530.5,303.5C 530.232,305.099 530.566,306.432 531.5,307.5C 531.483,309.565 531.15,311.565 530.5,313.5C 529.833,313.833 529.167,314.167 528.5,314.5C 528.46,311.119 528.793,307.786 529.5,304.5C 521.167,304.5 512.833,304.5 504.5,304.5C 504.5,299.167 504.5,293.833 504.5,288.5 Z"/></g>
<g><path style="opacity:1" fill="#3d3d3d" d="M 303.5,304.5 C 311.86,304.169 320.193,304.502 328.5,305.5C 328.376,306.107 328.043,306.44 327.5,306.5C 319.5,305.833 311.5,305.167 303.5,304.5 Z"/></g>
<g><path style="opacity:1" fill="#a0a0a0" d="M 714.5,295.5 C 716.175,298.507 716.841,301.84 716.5,305.5C 713.833,305.5 711.167,305.5 708.5,305.5C 708.5,304.5 708.5,303.5 708.5,302.5C 710.456,304.148 712.789,304.815 715.5,304.5C 715.296,301.482 714.963,298.482 714.5,295.5 Z"/></g>
<g><path style="opacity:1" fill="#69360b" d="M 300.5,294.5 C 299.771,299.13 299.437,303.797 299.5,308.5C 307.167,308.5 314.833,308.5 322.5,308.5C 322.737,309.791 322.404,310.791 321.5,311.5C 314.24,309.535 306.573,308.868 298.5,309.5C 298.334,305.486 298.501,301.486 299,297.5C 299.232,296.263 299.732,295.263 300.5,294.5 Z"/></g>
<g><path style="opacity:1" fill="#6f390b" d="M 691.5,309.5 C 699.167,309.5 706.833,309.5 714.5,309.5C 714.821,314.695 714.487,319.695 713.5,324.5C 713.5,319.833 713.5,315.167 713.5,310.5C 705.981,310.825 698.648,310.492 691.5,309.5 Z"/></g>
<g><path style="opacity:1" fill="#3a3a3a" d="M 533.5,335.5 C 513.5,335.5 493.5,335.5 473.5,335.5C 473.83,319.325 473.496,303.325 472.5,287.5C 472.413,284.402 472.913,284.068 474,286.5C 474.5,302.497 474.667,318.497 474.5,334.5C 494.34,334.17 514.007,334.503 533.5,335.5 Z"/></g>
<g><path style="opacity:1" fill="#83440d" d="M 209.5,299.5 C 209.034,305.491 208.701,311.491 208.5,317.5C 207.171,311.434 207.505,305.434 209.5,299.5 Z"/></g>
<g><path style="opacity:1" fill="#964e0f" d="M 668.5,308.5 C 670.631,313.152 671.631,318.152 671.5,323.5C 669.862,318.752 668.862,313.752 668.5,308.5 Z"/></g>
<g><path style="opacity:1" fill="#753d0c" d="M 745.5,305.5 C 744.742,307.981 744.742,310.648 745.5,313.5C 744.029,310.257 743.029,306.757 742.5,303C 742.833,302.5 743.167,302 743.5,301.5C 744.362,302.766 745.029,304.099 745.5,305.5 Z"/></g>
<g><path style="opacity:1" fill="#727272" d="M 271.5,306.5 C 271.556,311.731 270.889,316.731 269.5,321.5C 269.444,316.269 270.111,311.269 271.5,306.5 Z"/></g>
<g><path style="opacity:1" fill="#e8e8e8" d="M 147.5,322.5 C 147.665,326.182 147.499,329.848 147,333.5C 145.539,332.117 144.706,332.451 144.5,334.5C 144.5,335.167 144.5,335.833 144.5,336.5C 143.596,337.209 143.263,338.209 143.5,339.5C 136.485,339.422 129.485,339.089 122.5,338.5C 116.455,338.697 110.455,338.363 104.5,337.5C 104.402,335.447 105.069,333.78 106.5,332.5C 107.404,333.209 107.737,334.209 107.5,335.5C 109.5,335.5 111.5,335.5 113.5,335.5C 122.518,335.448 131.518,335.782 140.5,336.5C 141.705,329.886 143.705,323.553 146.5,317.5C 147.452,319.045 147.785,320.712 147.5,322.5 Z"/></g>
<g><path style="opacity:1" fill="#7f7f7f" d="M 530.5,313.5 C 529.79,317.347 528.624,321.014 527,324.5C 526.326,320.888 526.826,317.554 528.5,314.5C 529.167,314.167 529.833,313.833 530.5,313.5 Z"/></g>
<g><path style="opacity:1" fill="#dfdfdf" d="M 166.5,336.5 C 165.504,336.586 164.671,336.252 164,335.5C 163.51,336.793 163.343,338.127 163.5,339.5C 165.5,339.5 167.5,339.5 169.5,339.5C 167.393,340.468 165.059,340.802 162.5,340.5C 162.657,339.127 162.49,337.793 162,336.5C 157.492,343.513 153.492,350.847 150,358.5C 148.92,352.861 148.087,347.195 147.5,341.5C 147.337,339.143 147.503,336.81 148,334.5C 148.198,336.382 148.698,338.048 149.5,339.5C 150.317,341.969 150.817,344.635 151,347.5C 156.333,338.167 161.667,328.833 167,319.5C 166.97,325.148 166.803,330.815 166.5,336.5 Z"/></g>
<g><path style="opacity:1" fill="#6e390c" d="M 723.5,319.5 C 724.924,321.515 725.59,323.848 725.5,326.5C 724.076,324.485 723.41,322.152 723.5,319.5 Z"/></g>
<g><path style="opacity:1" fill="#a2a2a2" d="M 199.5,314.5 C 199.666,319.844 199.499,325.177 199,330.5C 198.79,332.058 198.29,333.391 197.5,334.5C 197.951,327.668 198.617,321.002 199.5,314.5 Z"/></g>
<g><path style="opacity:1" fill="#713b0c" d="M 522.5,323.5 C 522.59,326.152 521.924,328.485 520.5,330.5C 520.41,327.848 521.076,325.515 522.5,323.5 Z"/></g>
<g><path style="opacity:1" fill="#753d0c" d="M 152.5,329.5 C 153.222,329.918 153.722,330.584 154,331.5C 154.383,330.944 154.883,330.611 155.5,330.5C 153.686,334.643 152.686,334.31 152.5,329.5 Z"/></g>
<g><path style="opacity:1" fill="#5c2f0b" d="M 333.5,324.5 C 333.5,326.833 333.5,329.167 333.5,331.5C 340.827,330.773 348.16,330.107 355.5,329.5C 348.083,331.346 340.417,332.346 332.5,332.5C 332.194,329.615 332.527,326.948 333.5,324.5 Z"/></g>
<g><path style="opacity:1" fill="#351c07" d="M 415.5,308.5 C 415.5,315.833 415.5,323.167 415.5,330.5C 422.849,330.451 430.183,330.118 437.5,329.5C 430.077,331.255 422.411,331.921 414.5,331.5C 414.175,323.648 414.508,315.982 415.5,308.5 Z"/></g>
<g><path style="opacity:1" fill="#592e0a" d="M 121.5,330.5 C 126.507,330.751 131.507,331.084 136.5,331.5C 131.434,332.716 126.434,332.383 121.5,330.5 Z"/></g>
<g><path style="opacity:1" fill="#371d08" d="M 171.5,324.5 C 171.5,326.833 171.5,329.167 171.5,331.5C 178.809,330.752 186.142,330.418 193.5,330.5C 186.049,331.972 178.382,332.639 170.5,332.5C 170.194,329.615 170.527,326.948 171.5,324.5 Z"/></g>
<g><path style="opacity:1" fill="#934c0e" d="M 218.5,330.5 C 225.131,331.331 231.798,331.664 238.5,331.5C 235.854,332.164 233.021,332.498 230,332.5C 225.867,332.714 222.034,332.048 218.5,330.5 Z"/></g>
<g><path style="opacity:1" fill="#5c300a" d="M 378.5,320.5 C 378.5,324.167 378.5,327.833 378.5,331.5C 383.493,331.084 388.493,330.751 393.5,330.5C 388.402,331.957 383.069,332.624 377.5,332.5C 377.183,328.298 377.517,324.298 378.5,320.5 Z"/></g>
<g><path style="opacity:1" fill="#47250a" d="M 748.5,330.5 C 744.079,331.912 739.412,332.579 734.5,332.5C 731.645,332.497 728.978,332.164 726.5,331.5C 733.854,331.521 741.187,331.187 748.5,330.5 Z"/></g>
<g><path style="opacity:1" fill="#707070" d="M 790.5,331.5 C 791.043,331.56 791.376,331.893 791.5,332.5C 788.247,333.598 784.914,334.264 781.5,334.5C 784.408,333.184 787.408,332.184 790.5,331.5 Z"/></g>
<g><path style="opacity:1" fill="#a8a8a8" d="M 147.5,322.5 C 148.737,327.96 149.404,333.627 149.5,339.5C 148.698,338.048 148.198,336.382 148,334.5C 147.503,336.81 147.337,339.143 147.5,341.5C 147.083,338.841 146.083,336.508 144.5,334.5C 144.706,332.451 145.539,332.117 147,333.5C 147.499,329.848 147.665,326.182 147.5,322.5 Z"/></g>
<g><path style="opacity:1" fill="#505050" d="M 325.5,340.5 C 324.833,338.5 324.167,336.5 323.5,334.5C 323.504,332.158 324.337,330.158 326,328.5C 325.733,332.441 325.566,336.441 325.5,340.5 Z"/></g>
<g><path style="opacity:1" fill="#5e5e5e" d="M 469.5,304.5 C 469.56,303.957 469.893,303.624 470.5,303.5C 471.499,315.148 471.832,326.814 471.5,338.5C 470.833,327.167 470.167,315.833 469.5,304.5 Z"/></g>
<g><path style="opacity:1" fill="#373737" d="M 268.5,331.5 C 268.5,332.5 268.5,333.5 268.5,334.5C 285.577,334.818 302.577,334.485 319.5,333.5C 302.532,335.486 285.199,336.153 267.5,335.5C 267.232,333.901 267.566,332.568 268.5,331.5 Z"/></g>
<g><path style="opacity:1" fill="#454545" d="M 719.5,317.5 C 718.51,323.31 718.177,329.31 718.5,335.5C 701.658,335.83 684.992,335.497 668.5,334.5C 684.833,334.5 701.167,334.5 717.5,334.5C 717.171,328.463 717.504,322.463 718.5,316.5C 719.107,316.624 719.44,316.957 719.5,317.5 Z"/></g>
<g><path style="opacity:1" fill="#8a8a8a" d="M 755.5,332.5 C 754.596,333.209 754.263,334.209 754.5,335.5C 752.167,335.5 749.833,335.5 747.5,335.5C 749.265,334.539 751.265,334.205 753.5,334.5C 753.138,329.644 753.804,328.978 755.5,332.5 Z"/></g>
<g><path style="opacity:1" fill="#565656" d="M 144.5,336.5 C 144.5,337.833 144.5,339.167 144.5,340.5C 136.921,340.906 129.588,340.239 122.5,338.5C 129.485,339.089 136.485,339.422 143.5,339.5C 143.263,338.209 143.596,337.209 144.5,336.5 Z"/></g>
<g><path style="opacity:1" fill="#414141" d="M 397.5,338.5 C 390.043,339.989 382.376,340.989 374.5,341.5C 372.955,341.489 371.622,341.156 370.5,340.5C 379.48,339.657 388.48,338.99 397.5,338.5 Z"/></g>
</svg>
